<?xml version="1.0" standalone="no"?>
<!DOCTYPE svg PUBLIC "-//W3C//DTD SVG 1.1//EN" "http://www.w3.org/Graphics/SVG/1.1/DTD/svg11.dtd" >
<!--
2013-9-30: Created.
-->
<svg>
<metadata>
Created by iconfont
</metadata>
<defs>

<font id="iconfont" horiz-adv-x="1024" >
  <font-face
    font-family="iconfont"
    font-weight="500"
    font-stretch="normal"
    units-per-em="1024"
    ascent="896"
    descent="-128"
  />
    <missing-glyph />
    
    <glyph glyph-name="9" unicode="&#58947;" d="M320.11496107 611.557376c-23.65631147 23.69344853-62.02545493 23.69344853-85.67302827 0L49.34423893 426.46842027c-23.68361813-23.64648107-23.68361813-62.01562453 0-85.66319787l185.09769387-185.13046187c11.82378667-11.80521813 27.3481728-17.73513387 42.83651413-17.73513386s31.00398933 5.931008 42.83651414 17.73513386c23.64648107 23.6650496 23.64648107 62.02545493 0 85.68613547L177.83412053 383.63190612999995l142.28084054 142.27101014C343.76144213 549.55922773 343.76144213 587.9196330699999 320.11496107 611.557376zM975.35699627 426.46842027L790.25056427 611.557376c-23.65631147 23.69344853-62.0167168 23.69344853-85.66319787 0-23.65631147-23.63774293-23.65631147-61.99814827 0-85.65336747l142.27101013-142.27101013L704.5873664 241.36089600000003c-23.65631147-23.66068053-23.65631147-62.02108587 0-85.68613547 11.8226944-11.80521813 27.32960427-17.73513387 42.82668373-17.73513386 15.48834133 0 31.01272747 5.931008 42.83651414 17.73513386l185.10752426 185.13046187C999.03187627 364.45170347 999.03187627 402.8219392 975.35699627 426.46842027zM604.44289707 625.2544c-31.227904 12.0651776-66.2962176-3.54331307-78.29804374-34.7701248L383.56691627 220.29216426999994c-12.009472-31.23664213 3.51491413-66.25908053 34.74281813-78.3056896 7.1794688-2.74158933 14.56428373-4.06541653 21.76232107-4.06541654 24.3367936 0 47.284224 14.76962987 56.54336853 38.8268032l142.58776747 370.20084907C651.2050176 578.166784 635.64240213 613.2449280000001 604.44289707 625.2544z"  horiz-adv-x="1024" />

    
    <glyph glyph-name="57" unicode="&#58911;" d="M889.835 291.505h-47.644c-7.752-28.028-18.872-54.613-33.082-79.262l44.047-44.053c28.196-28.187 28.196-73.89 0-102.075l-25.503-25.537c-28.187-28.161-73.889-28.161-102.086 0l-44.337 44.334c-24.574-14.001-51.075-24.891-79.005-32.497v-46.225c0-39.88-32.311-72.191-72.169-72.191h-36.082c-39.857 0-72.192 32.312-72.192 72.191v46.225c-27.906 7.606-54.394 18.495-78.98 32.497l-44.336-44.334c-28.198-28.161-73.9-28.161-102.086 0l-25.502 25.537c-28.222 28.186-28.222 73.889 0 102.075l44.045 44.053c-14.209 24.647-25.33 51.234-33.082 79.262h-47.632c-39.893 0-72.205 32.324-72.205 72.192v36.097c0 39.856 32.312 72.168 72.205 72.168h47.058c7.484 27.782 18.152 54.212 31.947 78.725l-42.337 42.358c-28.222 28.187-28.222 73.89 0 102.075l25.502 25.537c28.187 28.185 73.889 28.185 102.086 0l41.53-41.541c25.377 14.783 52.795 26.305 81.787 34.23v48.485c0 39.858 32.336 72.169 72.192 72.169h36.082c39.858 0 72.169-32.311 72.169-72.169v-48.486c29.005-7.924 56.434-19.446 81.81-34.23l41.532 41.541c28.197 28.185 73.9 28.185 102.087 0l25.503-25.537c28.196-28.186 28.196-73.889 0-102.075l-42.336-42.358c13.793-24.513 24.473-50.941 31.944-78.725h47.072c39.856 0 72.191-32.312 72.191-72.168v-36.097c0.001-39.867-32.336-72.191-72.191-72.191v0zM512.001 579.117c-109.63 0-198.473-88.868-198.473-198.487 0-109.632 88.843-198.509 198.473-198.509 109.657 0 198.514 88.878 198.514 198.509 0 109.618-88.856 198.487-198.514 198.487v0zM512.001 292.64300000000003c-49.83 0-90.221 40.391-90.221 90.221s40.394 90.233 90.221 90.233c49.83 0 90.222-40.404 90.222-90.233 0-49.83-40.394-90.221-90.222-90.221v0z"  horiz-adv-x="1026" />

    
    <glyph glyph-name="56" unicode="&#58993;" d="M961.588 724.515q0-23.085-12.507-43.287l-0.963-0.963q0-0.963-0.481-1.443t-0.481-1.443l-346.287-416.507v-197.192q0-42.324-23.567-72.144t-65.891-29.82q-43.287 0-67.334 29.82t-24.048 72.144v198.153l-342.439 413.621q-17.315 22.125-17.315 49.058 0 17.315 6.735 32.224t17.795 25.973 25.973 17.315 32.224 6.252h735.86q34.629 0 58.677-24.048t24.048-57.714z"  horiz-adv-x="1024" />

    
    <glyph glyph-name="55" unicode="&#59205;" d="M651.163 665.306q26.919 0 48.006-11.664t36.341-28.714 23.33-36.789 8.076-34.995v-506.979q0-26.022-10.319-46.66t-26.919-34.995-37.238-22.433-41.276-8.076h-442.373q-17.049 0-37.238 9.87t-37.687 26.022-29.162 37.238-11.664 42.622v499.801q0 18.844 8.973 39.033t23.33 37.238 33.201 28.266 39.481 11.216h453.141zM598.222 104.48800000000006q23.33 0 39.93 16.151t16.6 39.481-16.6 39.931-39.93 16.6h-336.49q-23.33 0-39.93-16.6t-16.6-39.931 16.6-39.481 39.93-16.151h336.49zM598.222 328.81500000000005q23.33 0 39.93 16.151t16.6 39.481-16.6 39.931-39.93 16.6h-336.49q-23.33 0-39.93-16.6t-16.6-39.931 16.6-39.481 39.93-16.151h336.49zM757.045 834q38.584 0 70.887-22.882t56.082-56.53 37.238-72.682 13.46-71.336v-476.471q0-18.844-11.216-34.546t-27.368-26.919-34.995-17.947-34.995-6.729h-3.59v535.693q-7.178 61.914-38.584 95.114t-83.45 43.071h-437.886q0.897 1.794 0.897 6.281 0 17.947 10.767 36.789t28.266 34.098 39.033 25.124 43.071 9.87h372.383z"  horiz-adv-x="1024" />

    
    <glyph glyph-name="54" unicode="&#58977;" d="M512 864C246.875 864 32 649.125 32 384s214.875-480 480-480 480 214.875 480 480S777.125 864 512 864zM809 87c-38.625-38.625-83.53125-68.90625-133.5-90C623.75-24.9375 568.71875-36 512-36s-111.75 11.0625-163.5 33c-49.96875 21.1875-94.96875 51.46875-133.5 90-38.625 38.625-68.90625 83.53125-90 133.5C103.0625 272.25 92 327.28125 92 384c0 56.71875 11.0625 111.75 33 163.5 21.1875 49.96875 51.46875 94.96875 90 133.5 38.625 38.625 83.53125 68.90625 133.5 90C400.25 792.9375 455.28125 804 512 804s111.75-11.0625 163.5-33c49.96875-21.1875 94.96875-51.46875 133.5-90 38.625-38.625 68.90625-83.53125 90-133.5C920.9375 495.75 932 440.71875 932 384c0-56.71875-11.0625-111.75-33-163.5C877.90625 170.53125 847.53125 125.625 809 87zM766.90625 622.40625l-2.15625 2.15625-1.40625-1.40625c-3.28125 0.5625-6.5625 0.84375-10.03125 0.84375l-482.8125 0c-3.09375 0-6.09375-0.28125-9-0.65625l-1.21875 1.21875-1.78125-1.78125c-26.625-5.53125-46.59375-29.15625-46.59375-57.375l0-362.8125c0-32.34375 26.25-58.59375 58.59375-58.59375l482.8125 0c32.34375 0 58.59375 26.25 58.59375 58.59375l0 362.8125C812 593.15625 792.78125 616.3125 766.90625 622.40625zM704.28125 564L512.5625 372.28125 320.9375 564 704.28125 564zM272 204L272 528 512.5625 287.4375 752 526.875 752 204 272 204z"  horiz-adv-x="1024" />

    
    <glyph glyph-name="53" unicode="&#59075;" d="M501.33333333 522.6666666799999L104.53333333 657.06666668C59.73333333 669.86666668 66.13333333 733.86666668 110.93333333 746.6666666799999l390.4 64 396.8-76.8c38.4-6.4 44.8-64 0-76.8L501.33333333 522.6666666799999zM379.73333333-53.33333331999995L85.33333333 87.46666668c-19.2 12.8-38.4 32-38.4 57.6L46.93333333 522.6666666799999c0 44.8 44.8 76.8 89.6 57.6L469.33333333 465.06666668l0-467.2C469.33333333-46.933333319999974 418.13333333-72.53333332 379.73333333-53.33333331999995zM533.33333333 4.2666666799999575L533.33333333 465.06666668l326.4 115.2c44.8 19.2 89.6-12.8 89.6-57.6l0-377.6c0-25.6-12.8-44.8-38.4-57.6l-288-134.4C584.53333333-72.53333332 533.33333333-46.933333319999974 533.33333333 4.2666666799999575z"  horiz-adv-x="1024" />

    
    <glyph glyph-name="52" unicode="&#58976;" d="M199.52672 372.41279999999995L199.52672 818.20416c0 13.25472-10.74528 24-24 24l-0.96 0c-13.25472 0-24-10.74528-24-24l0-445.79136c-65.2032-11.568-114.72-68.52672-114.72-137.05248 0-68.96832 50.16096-126.21216 115.98816-137.26272-0.81792-2.41728-1.26816-5.00352-1.26816-7.69728l0-96c0-13.25472 10.74528-24 24-24l0.96 0c13.25472 0 24 10.74528 24 24l0 96c0 2.69376-0.45024 5.28-1.26816 7.69728 65.8272 11.05152 115.98816 68.29536 115.98816 137.26272C314.24672 303.88608 264.72992 360.84479999999996 199.52672 372.41279999999995zM175.04576 145.12032c-49.8384 0-90.24 40.4016-90.24 90.24s40.4016 90.24 90.24 90.24 90.24-40.4016 90.24-90.24S224.88416 145.12032 175.04576 145.12032zM535.52384 739.1328L535.52384 818.20416c0 13.25472-10.74528 24-24 24l-0.96 0c-13.25472 0-24-10.74528-24-24l0-79.07136c-65.2032-11.568-114.72-68.52672-114.72-137.05248s49.5168-125.48448 114.72-137.05248l0-443.80896c0-13.25472 10.74432-24 24-24l0.96 0c13.25472 0 24 10.74528 24 24L535.52384 465.02784c65.2032 11.568 114.72 68.52672 114.72 137.05248S600.72704 727.5648 535.52384 739.1328zM511.04288 511.84032c-49.83744 0-90.24 40.4016-90.24 90.24s40.4016 90.24 90.24 90.24c49.8384 0 90.24-40.4016 90.24-90.24S560.88128 511.84032 511.04288 511.84032zM990.07808 235.36032c0 68.52576-49.51776 125.48448-114.72096 137.05248L875.35712 818.20416c0 13.25472-10.74528 24-24 24l-0.96 0c-13.25472 0-24-10.74528-24-24l0-445.79136c-65.20416-11.56896-114.71904-68.52768-114.71904-137.05248 0-68.96832 50.16096-126.21216 115.98816-137.26272-0.81888-2.41728-1.26816-5.00352-1.26816-7.69728l0-96c0-13.25472 10.74432-24 24-24l0.96 0c13.25472 0 24 10.74528 24 24l0 96c0 2.69376-0.45024 5.28-1.26816 7.69824C939.91616 109.14912000000004 990.07808 166.39200000000005 990.07808 235.36032zM850.87712 145.12032c-49.8384 0-90.24 40.4016-90.24 90.24s40.4016 90.24 90.24 90.24 90.24-40.4016 90.24-90.24S900.71552 145.12032 850.87712 145.12032z"  horiz-adv-x="1038" />

    
    <glyph glyph-name="8" unicode="&#58992;" d="M957.11476587-1.5732991999999513L93.5178976-1.5732991999999513 34.0310048-1.5732991999999513 34.0310048 58.022744529999954l0 625.4309984c0 16.4816896 13.31633173 29.79802133 29.79802133 29.79802134 16.4816896 0 29.79802133-13.31633173 29.79802134-29.79802134l0-625.4309984 863.59686933 0c16.4816896 0 29.79802133-13.31633173 29.79802133-29.79802133C986.9127872 11.74303359999999 973.59645547-1.5732991999999513 957.11476587-1.5732991999999513L957.11476587-1.5732991999999513zM867.8298528 117.61878720000004l-59.59604267 0c-32.85422827 0-59.59604267 26.63266347-59.59604266 59.59604267L748.6377664 534.4636352c0 32.85422827 26.63266347 59.59604267 59.59604267 59.59604267l59.59604266 0c32.85422827 0 59.59604267-26.63266347 59.59604267-59.59604267l0-357.35795627C927.42589547 144.25145067000005 900.68408107 117.61878720000004 867.8298528 117.61878720000004L867.8298528 117.61878720000004zM570.0679392 117.61878720000004l-59.59604267 0c-32.85422827 0-59.59604267 26.63266347-59.59604266 59.59604267L450.87585387 713.14261333c0 32.85422827 26.63266347 59.59604267 59.59604266 59.59604267l59.59604267 0c32.85422827 0 59.59604267-26.63266347 59.59604267-59.59604267l0-536.0369344C629.554832 144.25145067000005 602.92216747 117.61878720000004 570.0679392 117.61878720000004L570.0679392 117.61878720000004zM272.19687573 117.61878720000004l-59.59604266 0c-32.85422827 0-59.59604267 26.63266347-59.59604267 59.59604267L153.0047904 415.38069973c0 32.85422827 26.63266347 59.59604267 59.59604267 59.59604267l59.59604266 0c32.85422827 0 59.59604267-26.63266347 59.59604267-59.59604267l0-238.2750208C331.7929184 144.25145067000005 305.16025493 117.61878720000004 272.19687573 117.61878720000004L272.19687573 117.61878720000004z"  horiz-adv-x="1024" />

    
    <glyph glyph-name="7" unicode="&#59027;" d="M817.58851669 458.37446394c-28.94886614 140.55825218-152.97474999 248.0517677-305.91770742 248.0517677-119.93783167 0-223.25056465-66.18908678-272.85164514-165.41906743-128.17354822-16.47275743-223.25188896-119.85040114-223.25188897-248.05176771 0-136.41058781 111.64250292-248.0517677 248.0517677-248.0517677l537.40531294 0c115.79016731 0 206.74998889 90.99028985 206.74998888 206.78310706C1007.775669 359.14448459000005 920.96351179 450.10563051 817.58851669 458.37446394"  horiz-adv-x="1024" />

    
    <glyph glyph-name="6" unicode="&#58950;" d="M950.61333333 42.66666666000003L86.61333333 42.66666666000003 86.61333333 314.98666665999997l184.448 184.448C283.09333333 493.93066666 296.40533333 490.66666666 310.61333333 490.66666666s27.456 3.264 39.552 8.768l129.216-129.216C473.81333333 358.18666666 470.61333333 344.81066666000004 470.61333333 330.66666666000003c0-52.992 43.008-96 96-96s96 43.008 96 96c0 14.144-3.264 27.52-8.768 39.552l317.44 317.44c13.824 13.76 13.824 36.096 0 49.92-13.76 13.76-36.096 13.76-49.92 0L603.09333333 419.37066666C591.82933333 424.04266666 579.54133333 426.66666666 566.61333333 426.66666666S541.33333333 424.04266666 530.06933333 419.37066666L399.31733333 550.18666666C403.98933333 561.38666666 406.61333333 573.73866666 406.61333333 586.6666666599999c0 52.992-43.008 96-96 96s-96-43.008-96-96c0-12.928 2.624-25.28 7.296-36.48L86.61333333 414.82666666 86.61333333 778.66666666c0 17.664-14.336 32-32 32s-32-14.336-32-32l0-437.312c-0.832-4.288-0.832-8.576 0-12.864L22.61333333 10.666666660000033c0-17.664 14.336-32 32-32l896 0c17.664 0 32 14.336 32 32S968.27733333 42.66666666000003 950.61333333 42.66666666000003zM566.61333333 362.66666666000003c17.664 0 32-14.336 32-32S584.27733333 298.66666666000003 566.61333333 298.66666666000003s-32 14.336-32 32S548.88533333 362.66666666000003 566.61333333 362.66666666000003zM310.61333333 618.6666666599999c17.664 0 32-14.336 32-32S328.27733333 554.6666666599999 310.61333333 554.6666666599999s-32 14.336-32 32S292.88533333 618.6666666599999 310.61333333 618.6666666599999z"  horiz-adv-x="1024" />

    
    <glyph glyph-name="51" unicode="&#59076;" d="M407.19181657 564.53261631l0 207.50511368-363.26838666-363.1802104 363.26838666-363.33420786 0 212.82422906c259.42330694 0 441.09041087-83.00825563 570.77350036-264.66418204C926.12288087 253.17124536999995 770.44902571 512.5386658699999 407.19181657 564.53261631"  horiz-adv-x="1024" />

    
    <glyph glyph-name="50" unicode="&#58900;" d="M512-97.91999999999996c-227.84 0-423.68 152.32-476.16 369.92-2.56 10.24 3.84 20.48 14.08 23.04 10.24 2.56 20.48-3.84 23.04-14.08 48.64-200.32 229.12-340.48 439.04-340.48 181.76 0 344.96 106.24 416 271.36 4.48 9.6 15.36 14.08 24.96 10.24 9.6-4.48 14.08-15.36 10.24-24.96C886.4 17.279999999999973 709.12-97.91999999999996 512-97.91999999999996zM41.6 384L123.52 240.64 56.96 268.15999999999997 0 224ZM969.6 472.32c-8.96 0-16.64 5.76-18.56 14.72C902.4 687.36 721.92 827.52 512 827.52c-181.76 0-344.96-106.24-416-271.36-4.48-9.6-15.36-14.08-24.96-10.24-9.6 4.48-14.08 15.36-10.24 24.96 76.8 178.56 254.08 294.4 451.2 294.4 227.84 0 423.68-152.32 476.16-369.92 2.56-10.24-3.84-20.48-14.08-23.04C972.8 472.96 970.88 472.32 969.6 472.32zM982.4 384L900.48 527.36 967.04 499.84 1024 544ZM463.36 80c-3.2 0-6.4 0.64-8.96 2.56-8.32 4.48-12.16 14.08-8.96 22.4l70.4 225.28L410.24 330.24c-10.88 0-19.2 8.32-19.2 19.2l0 49.92c0 3.84 1.28 7.68 3.2 10.88l179.84 268.8c5.12 7.68 14.72 10.24 23.04 7.04 8.32-3.2 13.44-12.16 11.52-21.12l-46.72-246.4 108.16 0c10.88 0 19.2-8.32 19.2-19.2l0-49.92c0-4.48-1.28-8.96-4.48-12.16l-207.36-250.24C474.24 82.55999999999995 469.12 80 463.36 80zM429.44 368.64l112 0c6.4 0 12.16-3.2 15.36-7.68 3.84-5.12 4.48-11.52 2.56-17.28l-49.28-157.44 140.8 169.6 0 23.68L539.52 379.52c-5.76 0-10.88 2.56-14.72 7.04-3.84 4.48-5.12 10.24-3.84 16l33.28 176.64L429.44 393.6 429.44 368.64z"  horiz-adv-x="1024" />

    
    <glyph glyph-name="49" unicode="&#59002;" d="M925.79310312 384C925.79310312 612.5316196900001 740.53162438 797.79310312 512 797.79310312 283.46837562 797.79310312 98.20689688 612.5316196900001 98.20689688 384 98.20689688 155.46838031000004 283.46837562-29.793103119999955 512-29.793103119999955 740.53162438-29.793103119999955 925.79310312 155.46838031000004 925.79310312 384ZM512 430.815345L371.57436125 571.24097906C358.55406312 584.2612818800001 337.6663175 584.1890831200001 324.73862656 571.26138188 311.72079406 558.24355219 311.82005563 537.36460313 324.75901813 524.42563406L465.18465688 384 324.75901813 243.57436594C311.73872 230.55406500000004 311.81091875 209.66631844000005 324.73862656 196.73861811999996 337.75644125 183.72078750000003 358.63539875 183.82005188000005 371.57436125 196.75902094000003L512 337.184655 652.42563875 196.75902094000003C665.44593688 183.73871812000004 686.3336825 183.81091688000004 699.26137344 196.73861811999996 712.27920594 209.75644781000005 712.17994437 230.63539687000002 699.24098187 243.57436594L558.81534312 384 699.24098187 524.42563406C712.26128 537.445935 712.18908125 558.3336815600001 699.26137344 571.26138188 686.24355875 584.2792125000001 665.36460125 584.1799481200001 652.42563875 571.24097906L512 430.815345ZM32 384C32 649.09667906 246.90331625 864 512 864 777.09668375 864 992 649.09667906 992 384 992 118.90332093999996 777.09668375-96 512-96 246.90331625-96 32 118.90332093999996 32 384Z"  horiz-adv-x="1024" />

    
    <glyph glyph-name="48" unicode="&#58885;" d="M564.0553775 444.48988875c0 0 3.40788094 419.51011125 0 419.51011125 239.74440562 0 416.78380594-178.23215906 416.78380594-419.51011125C980.83918344 443.12673656 564.0553775 444.48988875 564.0553775 444.48988875L564.0553775 444.48988875 564.0553775 444.48988875zM946.07880031 358.44090186999995c0-250.99041187-202.08732375-454.44088781-451.54418906-454.44088781C245.24814031-95.99998593999999 43.16081656 107.45049094000001 43.16081656 358.44090186999995 43.16081656 609.4313137500001 245.24814031 812.88178969 494.53461125 812.88178969c11.75718844 0 23.17358812-0.85197 34.76038313-1.70394l0-401.6187375 414.05750156 0C945.05643688 393.54207281 946.07880031 374.96912344 946.07880031 358.44090186999995L946.07880031 358.44090186999995 946.07880031 358.44090186999995zM909.103295 372.4132125L494.53461125 372.4132125l0 405.53779969c-230.20233938 0-416.78380594-187.77422531-416.78380594-419.51011125s186.58146656-419.51011125 416.78380594-419.51011125c230.20233938 0 416.78380594 187.77422531 416.78380594 419.51011125C911.31841812 403.59532125 909.103295 372.4132125 909.103295 372.4132125L909.103295 372.4132125 909.103295 372.4132125zM909.103295 372.4132125"  horiz-adv-x="1024" />

    
    <glyph glyph-name="47" unicode="&#59080;" d="M512.09373031 819.00966563c21.46413844 0 43.11573656-9.1105425 64.36429594-27.07855688 23.5636875-19.92696844 46.07760094-50.61412594 65.10476344-88.62158531 20.33000719-40.65064125 36.35781375-88.34039531 47.65226156-141.73829813 11.86620094-56.11606875 17.88365813-115.83136406 17.88365813-177.50561437s-6.01745719-121.38954562-17.88365813-177.50561438C677.90185719 153.17146687000002 661.88342375 105.51920530999996 641.55341656 64.83107156000005 622.52625406 26.78612062000002 600.01234156-3.8635453099999495 576.45802625-23.82800530999998c-21.23918719-17.96801437-42.89078531-27.07855688-64.36429594-27.07855782s-43.11573656 9.1105425-64.36429687 27.07855782c-23.5636875 19.92696844-46.06822781 50.61412594-65.1047625 88.62158437-20.33000719 40.65064125-36.35781375 88.34039531-47.6522625 141.73829906C323.1062075 262.68543844 317.04188562 322.40073375 317.04188562 384.07498406s6.01745719 121.38954562 17.88365813 177.50561344c11.29444875 53.42602219 27.33162844 101.08765688 47.65226156 141.73829906 19.0271625 38.05432406 41.541075 68.69461594 65.1047625 88.62158532 21.28605187 17.95864125 42.94702313 27.06918469 64.4111625 27.06918375m0 44.99033437c-132.54339844 0-239.94844875-214.87571063-239.94844875-479.8968975s107.451915-479.8968975 239.94844875-479.89689656 239.94844875 214.87571063 239.94844782 479.89689656-107.451915 479.8968975-239.94844782 479.8968975zM512.09373031 819.00966563c21.46413844 0 43.11573656-9.1105425 64.36429594-27.07855688 23.5636875-19.92696844 46.07760094-50.61412594 65.10476344-88.62158531 20.33000719-40.65064125 36.35781375-88.34039531 47.65226156-141.73829813 11.86620094-56.11606875 17.88365813-115.83136406 17.88365813-177.50561437s-6.01745719-121.38954562-17.88365813-177.50561438C677.90185719 153.17146687000002 661.88342375 105.51920530999996 641.55341656 64.83107156000005 622.52625406 26.78612062000002 600.01234156-3.8635453099999495 576.45802625-23.82800530999998c-21.23918719-17.96801437-42.89078531-27.07855688-64.36429594-27.07855782s-43.11573656 9.1105425-64.36429687 27.07855782c-23.5636875 19.92696844-46.06822781 50.61412594-65.1047625 88.62158437-20.33000719 40.65064125-36.35781375 88.34039531-47.6522625 141.73829906C323.1062075 262.68543844 317.04188562 322.40073375 317.04188562 384.07498406s6.01745719 121.38954562 17.88365813 177.50561344c11.29444875 53.42602219 27.33162844 101.08765688 47.65226156 141.73829906 19.0271625 38.05432406 41.541075 68.69461594 65.1047625 88.62158532 21.28605187 17.95864125 42.94702313 27.06918469 64.4111625 27.06918375m0 44.99033437c-132.54339844 0-239.94844875-214.87571063-239.94844875-479.8968975s107.451915-479.8968975 239.94844875-479.89689656 239.94844875 214.87571063 239.94844782 479.89689656-107.451915 479.8968975-239.94844782 479.8968975zM276.33500656 656.54769469c97.76024719 0 219.22477594-37.76376188 333.25652625-103.59961688 53.42602219-30.83712469 102.11868562-65.90146687 144.77514657-104.23698094 40.60377656-36.48903562 73.88725125-74.18718656 98.93187-112.13840718 23.43246562-35.50487156 38.71980656-70.29739688 44.20300312-100.69399219 4.93956375-27.37849312 1.99644562-50.68911-8.73562312-69.27574125-9.65417625-16.7214075-25.82257687-29.92794562-48.06467344-39.26343938-24.90402469-10.45087969-56.134815-15.74661656-92.79256406-15.74661656-97.76961938 0-219.24352219 37.76376188-333.27527344 103.59961688-53.42602219 30.83712469-102.11868562 65.90146687-144.77514563 104.23698-40.60377656 36.4796625-73.87787813 74.215305-98.92249687 112.13840812-23.43246562 35.50487156-38.71980656 70.29739688-44.20300406 100.69399125-4.93956375 27.37849312-1.99644562 50.68911 8.73562312 69.27574219 9.65417625 16.7214075 25.82257687 29.92794562 48.06467438 39.26343937 24.90402469 10.45087969 56.14418812 15.74661656 92.83942875 15.74661657m0 44.99033437c-84.17878969 0-149.83655812-25.49452313-179.85823407-77.50522406C30.22850563 509.25121594 162.54695281 308.75366625000004 392.09138656 176.22901312c125.55115125-72.48130312 254.14852313-109.66393969 355.77043969-109.66393874 84.17878969 0 149.83655812 25.49452313 179.85823406 77.50522312 66.27638625 114.81908156-66.10767187 315.31663125-295.63336031 447.84128437-125.55115125 72.48130312-254.14852313 109.66393969-355.77043969 109.66393876zM747.88994562 656.54769469c36.69524156 0 67.91665875-5.29573688 92.79256407-15.74661657 22.23272344-9.37298625 38.42924344-22.49516719 48.05530031-39.26343937 10.73206969-18.58663219 13.67518688-41.89724906 8.73562313-69.27574219-5.47382438-30.36847594-20.76116437-65.18911969-44.20300313-100.69399125-25.03524656-37.93247531-58.31872031-75.65874563-98.92249688-112.13840812-42.63771469-38.33551406-91.34912438-73.39985531-144.75640031-104.24635313-114.03175125-65.82648281-235.50565313-103.59024469-333.26589937-103.59024375-36.70461469 0-67.93540406 5.29573688-92.79256407 15.74661656-22.23272344 9.37298625-38.42924344 22.49516719-48.06467437 39.26343938-10.73206969 18.58663219-13.67518688 41.89724906-8.73562313 69.27574125 5.47382438 30.36847594 20.76116437 65.18911969 44.20300407 100.69399219 24.99775406 37.95122156 58.28122875 75.6493725 98.87563218 112.13840718 42.66583312 38.33551406 91.36787063 73.40922844 144.77514563 104.23698094 114.03175125 65.83585594 235.50565313 103.59024469 333.28464562 103.59961688m0 44.99033437c-101.61254437 0-230.23803469-37.145145-355.77043968-109.66393969C162.54695281 459.38692875 30.22850563 258.88937906 96.45802625 144.10778905999996c29.99355562-52.01070094 95.67007125-77.50522312 179.85823406-77.50522312 101.61254437 0 230.23803469 37.145145 355.77043969 109.66393969C861.6123875 308.75366625000004 993.99644563 509.25121594 927.72943344 624.032805c-29.99355562 52.01070094-95.67007125 77.50522312-179.85823406 77.50522406zM482.00644438 361.40173030999995H362.03222a22.49516719 22.49516719 0 0 0 0 44.99033344h119.97422437a22.49516719 22.49516719 0 0 0 0-44.99033344zM422.01933219 301.41461812a22.49516719 22.49516719 0 0 0-22.49516719 22.49516719V443.88400969a22.49516719 22.49516719 0 0 0 44.99033344 0v-119.97422438a22.49516719 22.49516719 0 0 0-22.49516625-22.49516718zM661.96778 361.40173030999995h-89.98066781a22.49516719 22.49516719 0 0 0 0 44.99033344h89.98066781a22.49516719 22.49516719 0 0 0 0-44.99033344z"  horiz-adv-x="1024" />

    
    <glyph glyph-name="46" unicode="&#58887;" d="M618.467335-61.414489l86.312808 203.1447 206.607568-193.72005 47.260374 50.466392-206.675107 193.72005 197.247387 99.263771-515.429099 157.232021 184.676069-510.106884zM483.549529 649.0803080000001c0-24.879644-20.070104-45.01524-44.886303-45.01524-24.879644 0-45.014216 20.135596-45.014216 45.01524V764.696512c-0.064468 24.879644 20.070104 44.950771 45.014216 44.950771 24.816199 0 44.886303-20.072151 44.886303-44.950771v-115.616204z m-175.699627-37.127596c17.570167-17.504676 17.570167-45.976124 0-63.547315-17.504676-17.504676-46.040592-17.504676-63.547315 0l-81.758072 81.758072c-17.506722 17.505699-17.506722 45.978171 0 63.482847 17.570167 17.570167 46.041616 17.570167 63.546291 0l81.759096-81.693604z m245.276262 16.993023c-17.506722-17.569144-17.506722-46.040592 0-63.61076 17.503653-17.506722 46.040592-17.506722 63.611784 0l81.628112 81.758072c17.570167 17.505699 17.570167 46.041616 0 63.546292-17.504676 17.570167-45.976124 17.570167-63.482847 0l-81.757049-81.693604zM221.474672 472.227414c24.816199 0 44.950771-20.072151 44.950772-44.952818 0-24.815175-20.071128-44.950771-44.950772-44.950772l-115.615181 0.064469c-24.880667 0-44.950771 20.071128-44.950771 44.951794 0 24.815175 20.070104 44.887326 44.950771 44.887327h115.615181z m54.05615-156.336628c17.505699 17.505699 45.977147 17.505699 63.548338-0.12689 17.568121-17.443277 17.568121-45.978171 0.064469-63.48387l-81.758072-81.69258c-17.506722-17.571191-46.042639-17.571191-63.547315 0-17.570167 17.568121-17.570167 46.039569 0 63.545268l81.69258 81.758072z"  horiz-adv-x="1024" />

    
    <glyph glyph-name="45" unicode="&#58906;" d="M75.70546119 777.62845355l0-799.23965269 872.58907762 0 1.16429482 800.40394866L75.70546119 777.62845355zM875.52959033 49.984796449999976L147.30611485 49.984796449999976l0 509.34415702 729.38777144 1.16429482L875.52959033 49.984796449999976zM220.86860459 487.1857391l217.12589141 0 0-72.76494734-217.12589141 0 0 72.76494734ZM220.86860459 341.91548075000003l217.12589141 0 0-72.76494734-217.12589141 0 0 72.76494734ZM220.86860459 195.80227357l217.12589141 0 0-72.76494734-217.12589141 0 0 72.76494734ZM585.27083406 487.02623062l218.29018624 0 0-72.76494734-218.29018624 0 0 72.76494734ZM585.27083406 341.75597227000003l218.29018624 0 0-72.76494734-218.29018624 0 0 72.76494734ZM585.27083406 195.64276509l218.29018624 0 0-72.76611242-218.29018624 0 0 72.76611242Z"  horiz-adv-x="1024" />

    
    <glyph glyph-name="44" unicode="&#59460;" d="M510.93248747 861.41300053c-261.6454784 0-475.71895147-214.07347413-475.71895254-475.71895146 0-261.6465696 214.07347413-475.72004267 475.71895254-475.72004267 261.6465696 0 475.72004267 214.07347413 475.72004266 475.72004267 0 261.6454784-214.07347413 475.71895147-475.72004266 475.71895146z m0-856.2949856c-209.31660053 0-380.57494293 171.2583424-380.574944 380.57603414 0 209.31660053 171.2583424 380.57494293 380.574944 380.57494293 209.31769173 0 380.57603413-171.2583424 380.57603413-380.57494293S720.2512704 5.118014929999958 510.93248747 5.118014929999958zM508.90333867 246.03649386999996c-7.91793387-7.92011733-18.29180267-11.87908373-28.66567147-11.87908374-10.37496 0-20.74992107 3.95896747-28.66567147 11.87908374L316.42026133 381.18822720000003c-8.3414464 8.33926293-12.01225067 19.37132267-11.5625408 30.27676587 0.3973152 9.81937387 4.06593707 19.55688213 11.5625408 27.05239466 7.4955136 7.50097067 17.23411413 11.16959147 27.0545792 11.56690774 10.90325973 0.44534293 21.93750187-3.22109547 30.2767648-11.56690774l106.48606187-106.48060373 187.5766656 187.57339093c8.33926293 8.3414464 19.37568853 12.01225067 30.2767648 11.5625408 9.82046507-0.39949867 19.5601568-4.06593707 27.05457813-11.5625408 7.497696-7.4955136 11.1652256-17.23848 11.56254187-27.0545792 0.4486176-10.90325973-3.22109547-21.93750187-11.56254187-30.27894826l-216.24233706-216.2401536z"  horiz-adv-x="1024" />

    
    <glyph glyph-name="43" unicode="&#59061;" d="M510.46553707 863.01450987c-263.58466987 0-477.26380267-213.6780416-477.26380267-477.2670784 0-263.58685333 213.67913387-477.26707947 477.26380267-477.26707947s477.26380267 213.68022613 477.26380266 477.26707947c0 263.59013013-213.67913387 477.26707947-477.26380266 477.2670784z m0-906.80745067c-237.22794987 0-429.53709547 192.3135136-429.5370944 429.54037227 0 237.22904213 192.3091456 429.5403712 429.5370944 429.5403712s429.53709547-192.31132907 429.53709546-429.5403712c0-237.22576533-192.3091456-429.5403712-429.53709546-429.54037227zM510.46553707 385.74743147m-47.72670827 0a47.72670827 47.72670827 0 1 1 95.45341653 0 47.72670827 47.72670827 0 1 1-95.45341653 0ZM319.55979733 385.74743147m-47.7267072 0a47.72670827 47.72670827 0 1 1 95.45341547 0 47.72670827 47.72670827 0 1 1-95.45341547 0ZM701.3712768 385.74743147m-47.72670827 0a47.72670827 47.72670827 0 1 1 95.45341654 0 47.72670827 47.72670827 0 1 1-95.45341654 0Z"  horiz-adv-x="1024" />

    
    <glyph glyph-name="42" unicode="&#58980;" d="M738.13333333 806.4v-203.43466666A341.46986667 341.46986667 0 0 1 379.05066666 89.60000000000002H55.46666666V806.4h682.66666667zM738.13333333 559.95733334v-107.17866667c-21.16266667 8.192-44.37333333 12.288-68.26666667 12.288-113.32266667 0-204.8-91.47733333-204.8-204.8 0-71.68 36.18133333-133.80266667 91.47733334-170.66666667H414.54933333c-32.768 49.152-51.88266667 107.86133333-51.88266667 170.66666667C362.66666666 430.25066667 499.88266666 567.46666667 669.86666666 567.46666667c23.21066667 0 46.42133333-2.73066667 68.26666667-7.50933333zM738.13333333 559.95733334c-21.84533333 4.77866667-45.056 7.50933333-68.26666667 7.50933333-169.984 0-307.2-137.216-307.2-307.2 0-62.80533333 19.11466667-121.51466667 51.88266667-170.66666667 54.61333333-82.60266667 148.82133333-136.53333333 255.31733333-136.53333333 169.984 0 307.2 137.216 307.2 307.2 0 146.77333333-101.71733333 268.97066667-238.93333333 299.69066667z m-68.26666667-504.49066667c-41.64266667 0-80.55466667 12.97066667-113.32266666 34.13333333A203.91253333 203.91253333 0 0 0 465.06666666 260.26666666999995c0 113.32266667 91.47733333 204.8 204.8 204.8 23.89333333 0 47.104-4.096 68.26666667-12.288 79.872-27.30666667 136.53333333-103.08266667 136.53333333-192.512 0-113.32266667-91.47733333-204.8-204.8-204.8zM738.13333333 559.95733334c-21.84533333 4.77866667-45.056 7.50933333-68.26666667 7.50933333-169.984 0-307.2-137.216-307.2-307.2 0-62.80533333 19.11466667-121.51466667 51.88266667-170.66666667 54.61333333-82.60266667 148.82133333-136.53333333 255.31733333-136.53333333 169.984 0 307.2 137.216 307.2 307.2 0 146.77333333-101.71733333 268.97066667-238.93333333 299.69066667z m-68.26666667-504.49066667c-41.64266667 0-80.55466667 12.97066667-113.32266666 34.13333333A203.91253333 203.91253333 0 0 0 465.06666666 260.26666666999995c0 113.32266667 91.47733333 204.8 204.8 204.8 23.89333333 0 47.104-4.096 68.26666667-12.288 79.872-27.30666667 136.53333333-103.08266667 136.53333333-192.512 0-113.32266667-91.47733333-204.8-204.8-204.8z"  horiz-adv-x="1024" />

    
    <glyph glyph-name="61" unicode="&#59021;" d="M40.96 711.6800000000001c0 45.056 36.864 81.92 81.92 81.92h256c45.056 0 81.92-36.864 81.92-81.92v-20.48c0-22.528 18.432-40.96 40.96-40.96h296.96c45.056 0 81.92-36.864 81.92-81.92v-20.48h-606.208c-45.056 0-88.064-36.864-96.256-79.872l-90.112-493.568c-26.624 0-47.104 36.864-47.104 81.92v655.36z m182.272-264.192c6.144 32.768 38.912 59.392 73.728 59.392h634.88c34.816 0 55.296-26.624 49.152-59.392L901.12 35.84000000000003c-6.144-32.768-38.912-59.392-73.728-59.392h-696.32l92.16 471.04z"  horiz-adv-x="1024" />

    
    <glyph glyph-name="60" unicode="&#59022;" d="M70.4 691.2c0 42.24 34.56 76.8 76.8 76.8h240c42.24 0 76.8-34.56 76.8-76.8v-19.2c0-21.12 17.28-38.4 38.4-38.4h372.48c42.24 0 76.8-34.56 76.8-76.8v-480c0-42.24-34.56-76.8-76.8-76.8h-729.6c-42.24 0-76.8 34.56-76.8 76.8v614.4z"  horiz-adv-x="1024" />

    
    <glyph glyph-name="41" unicode="&#59051;" d="M512 875.52c-225.28 0-409.6-73.728-409.6-178.176V70.65599999999995c0-102.4 184.32-178.176 409.6-178.176s409.6 73.728 409.6 178.176V697.344c0 104.448-184.32 178.176-409.6 178.176z m0-40.96c204.8 0 368.64-65.536 368.64-137.216 0-69.632-163.84-137.216-368.64-137.216s-368.64 65.536-368.64 137.216 163.84 137.216 368.64 137.216z m368.64-763.904c0-69.632-163.84-137.216-368.64-137.216s-368.64 65.536-368.64 137.216v131.072c65.536-59.392 206.848-98.304 368.64-98.304s303.104 38.912 368.64 98.304v-131.072z m-368.64 71.68c-204.8 0-368.64 65.536-368.64 137.216v131.072c65.536-59.392 206.848-98.304 368.64-98.304s303.104 38.912 368.64 98.304v-131.072c0-69.632-163.84-137.216-368.64-137.216z m0 208.896c-204.8 0-368.64 65.536-368.64 137.216V619.52c65.536-59.392 206.848-98.304 368.64-98.304s303.104 38.912 368.64 98.304v-131.072c0-69.632-163.84-137.216-368.64-137.216zM796.672 490.496m-24.576 0a24.576 24.576 0 1 1 49.152 0 24.576 24.576 0 1 1-49.152 0ZM796.672 283.648m-24.576 0a24.576 24.576 0 1 1 49.152 0 24.576 24.576 0 1 1-49.152 0ZM796.672 74.75199999999995m-24.576 0a24.576 24.576 0 1 1 49.152 0 24.576 24.576 0 1 1-49.152 0Z"  horiz-adv-x="1024" />

    
    <glyph glyph-name="40" unicode="&#59109;" d="M614.4 573.44V691.2c43.52 0 76.8 33.28 76.8 76.8s-33.28 76.8-76.8 76.8H409.6c-40.96 0-76.8-33.28-76.8-76.8s35.84-76.8 76.8-76.8v-117.76C276.48 529.9200000000001 179.2 404.48 179.2 256c0-184.32 148.48-332.8 332.8-332.8S844.8 71.67999999999995 844.8 256c0 148.48-97.28 273.92-230.4 317.44zM384 768c0 12.8 12.8 25.6 25.6 25.6h204.8c12.8 0 25.6-12.8 25.6-25.6s-12.8-25.6-25.6-25.6H409.6c-12.8 0-25.6 12.8-25.6 25.6z m40.96-243.2l35.84 10.24V691.2h102.4v-156.16l35.84-10.24c53.76-17.92 97.28-48.64 130.56-89.6H294.4c33.28 40.96 79.36 71.68 130.56 89.6zM512-25.600000000000023c-156.16 0-281.6 125.44-281.6 281.6 0 46.08 10.24 89.6 30.72 128h501.76c20.48-38.4 30.72-81.92 30.72-128 0-156.16-125.44-281.6-281.6-281.6z m189.44 227.84c-12.8 5.12-28.16 0-33.28-12.8-20.48-40.96-53.76-71.68-92.16-92.16-12.8-5.12-17.92-20.48-12.8-33.28 5.12-10.24 12.8-15.36 23.04-15.36 2.56 0 7.68 0 10.24 2.56 48.64 25.6 89.6 66.56 115.2 115.2 7.68 12.8 2.56 28.16-10.24 35.84z"  horiz-adv-x="1024" />

    
    <glyph glyph-name="39" unicode="&#58880;" d="M735.5-63h-447C165.3-63 65 37.299999999999955 65 160.5v447C65 730.7 165.3 831 288.5 831h447C858.7 831 959 730.7 959 607.5v-447C959 37.299999999999955 858.7-63 735.5-63z m-447 812.7c-78.4 0-142.2-63.8-142.2-142.2v-447c0-78.4 63.8-142.2 142.2-142.2h447c78.4 0 142.2 63.8 142.2 142.2v447c0 78.4-63.8 142.2-142.2 142.2h-447zM601.5 216.70000000000005H422.6c-43.1 0-78.3 35.2-78.3 78.3V473.9c0 43.1 35.2 78.3 78.3 78.3h178.9c43.1 0 78.3-35.2 78.3-78.3V295c0-43.1-35.2-78.3-78.3-78.3zM614.1 517h-21V639.7c0 5.8 4.7 10.5 10.5 10.5s10.5-4.7 10.5-10.5V517zM550.7 517h-21V639.7c0 5.8 4.7 10.5 10.5 10.5s10.5-4.7 10.5-10.5V517zM487.3 517h-21V639.7c0 5.8 4.7 10.5 10.5 10.5s10.5-4.7 10.5-10.5V517zM423.9 517h-21V639.7c0 5.8 4.7 10.5 10.5 10.5s10.5-4.7 10.5-10.5V517zM603.6 125.5c-5.8 0-10.5 4.7-10.5 10.5V258.6h21v-122.7c0-5.7-4.7-10.4-10.5-10.4zM540.2 125.5c-5.8 0-10.5 4.7-10.5 10.5V258.6h21v-122.7c0-5.7-4.7-10.4-10.5-10.4zM476.8 125.5c-5.8 0-10.5 4.7-10.5 10.5V258.6h21v-122.7c0-5.7-4.7-10.4-10.5-10.4zM413.4 125.5c-5.8 0-10.5 4.7-10.5 10.5V258.6h21v-122.7c0-5.7-4.7-10.4-10.5-10.4zM242 290.1c0 5.8 4.7 10.5 10.5 10.5h122.7v-21H252.5c-5.8 0-10.5 4.7-10.5 10.5zM242 353.5c0 5.8 4.7 10.5 10.5 10.5h122.7v-21H252.5c-5.8 0-10.5 4.7-10.5 10.5zM242 416.9c0 5.8 4.7 10.5 10.5 10.5h122.7v-21H252.5c-5.8 0-10.5 4.7-10.5 10.5zM242 480.3c0 5.8 4.7 10.5 10.5 10.5h122.7v-21H252.5c-5.8 0-10.5 4.7-10.5 10.5zM647.7 279.6v21h122.7c5.8 0 10.5-4.7 10.5-10.5s-4.7-10.5-10.5-10.5H647.7zM647.7 343v21h122.7c5.8 0 10.5-4.7 10.5-10.5s-4.7-10.5-10.5-10.5H647.7zM647.7 406.4v21h122.7c5.8 0 10.5-4.7 10.5-10.5s-4.7-10.5-10.5-10.5H647.7zM647.7 469.8v21h122.7c5.8 0 10.5-4.7 10.5-10.5s-4.7-10.5-10.5-10.5H647.7z"  horiz-adv-x="1024" />

    
    <glyph glyph-name="38" unicode="&#58907;" d="M160.28872957 131.41245411c-13.10279856 0-26.20559714 7.27841198-32.756306 20.3825914-12.37509547 25.47651318-23.29340384 52.40981344-32.02860289 79.34311371-6.55208971 18.92580432 4.36759952 39.30701486 23.29340384 45.85910456 18.92580432 6.55208971 39.30701486-4.36759952 45.85910459-23.29340384 8.00611509-23.29340384 17.4703981-47.31589165 28.38870647-69.15250842 8.73519904-18.19810121 1.45540623-40.03471798-16.01499187-48.76991702-5.82438659-2.9121933-11.64601151-4.36759952-16.74269498-4.36759953zM648.7225072-171.4017958500001c-81.52622304 0-160.86933673 16.74269497-235.11714779 49.49762016-71.33561776 32.02860288-135.39282354 76.43092039-189.25804321 133.93603646-13.83050169 14.55820479-13.10279856 37.85160864 1.45540623 51.68211032 14.55820479 13.83050169 37.85160864 13.10279856 51.68211032-1.45540622 47.31589165-50.22532325 102.63651755-89.53509981 165.23693625-117.19610318 64.7849089-29.11640959 133.93603647-43.67599523 205.27303506-43.67599524 136.12052666 0 263.50585426 53.13751655 360.31936607 149.22332523 96.08580867 96.08580867 149.22332522 224.19883939 149.2233252 360.31936605s-53.13751655 263.50585426-149.2233252 360.31936605c-96.08580867 95.35672471-224.19883939 148.49562211-359.59166293 148.49562211-136.12052666 0-263.50585426-53.13751655-360.31936607-149.22332523-96.08580867-96.08580867-149.22332522-224.19883939-149.22332521-360.31936605 0-20.38259139-16.01499187-36.39482158-36.39482159-36.39482155-20.38259139 0-36.39482158 16.01499187-36.39482156 36.39482155 0 78.61541057 15.28590791 155.04633098 45.85910457 226.38332958 29.11640959 69.15250842 71.33561776 131.75292713 124.47451517 184.89182452s115.73931611 95.35672471 184.89182451 124.47451516c72.06470173 30.57319666 147.76653814 45.85910458 226.38332958 45.85910457 78.61541057 0 155.04633098-15.28590791 226.38332957-45.85910457 69.15250842-29.11640959 131.75292713-71.33561776 184.89182452-124.47451516 53.13751655-53.13751655 95.35672471-115.73931611 124.47451516-184.89182452 30.57319666-72.06470173 45.85910458-147.76653814 45.85910457-226.38332958 0-78.61541057-15.28590791-155.04633098-45.85910457-226.38332956-29.11640959-69.15250842-71.33561776-131.75292713-124.47451516-184.89182453-53.13751655-53.13751655-115.73931611-95.35672471-184.89182452-124.47451515-71.33561776-30.57319666-147.03883504-45.85910458-225.65562646-45.85910458zM482.02878387 124.13404214000002c-6.55208971 0-12.37509547 1.45540623-18.19810122 5.09530265-10.91830838 6.55208971-18.19810121 18.19810121-18.1981012 31.30089976V660.61003367c0 13.10279856 7.27841198 24.74881007 18.1981012 31.30089978 11.64601151 6.55208971 25.47651318 6.55208971 36.39482159 0L933.33727511 441.50649691c10.91830838-6.55208971 18.19810121-18.19810121 18.19810121-31.30089977s-7.27841198-24.74881007-18.19810121-31.30089977L500.22550424 128.50026083c-5.09530263-2.9121933-11.64601151-4.36759952-18.19810121-4.36759953z"  horiz-adv-x="1280" />

    
    <glyph glyph-name="37" unicode="&#59008;" d="M991.9709375 383.9090625c0 264.616875-214.6734375 479.131875-479.4871875 479.131875C247.6653125 863.0409375 32.9871875 648.525 32.9871875 383.9090625c0-244.441875 183.1790625-446.113125 419.8471875-475.45875 13.3425-2.8125 29.5921875-4.4503125 48.946875-4.4503125 5.43375 0 10.6734375 0.2859375 15.733125 0.8034375 262.49625 2.698125 474.4565625 216.1575 474.4565625 479.105625z m-68.5621875-6.7790625c-1.3790625 23.90625-4.5375 47.30625-9.346875 70.048125 0.4275 8.120625 0.54375 15.81375 0.32625 22.9659375 5.9465625-27.80625 9.0825-56.655 9.0825-86.235a408.703125 408.703125 0 0 0-0.061875-6.7790625z m-821.9203125 6.778125c0 29.041875 3.0234375 57.3759375 8.7609375 84.714375 17.74875-18.9825 59.581875-18.534375 69.78375 9.8278125 18.2540625-10.8796875 42.7846875-12.860625 42.7846875-34.6059375 0-71.765625 2.555625-148.704375 67.7625-149.893125 1.835625-0.024375 36.36375-13.085625 52.79625-55.7025 5.68125-14.73 28.1559375 0 52.801875 0 12.30375 0 0-20.728125 0-65.551875 0-44.649375 96.2625-113.4 96.2625-113.4-0.4453125-29.5546875 0.76875-53.4534375 3.2278125-72.5465625-21.7284375 0.4003125-40.040625-2.4796875-54.4265625-7.37625C248.2128125 13.082812500000045 101.4875 181.36593749999997 101.4875 383.9090625z m512.175-398.143125c-2.1309375 10.4315625-11.4515625 16.14375-28.45875 11.67375 13.569375 57.7875 20.1665625 90.159375 48.495 114.7378125 40.9875 35.5303125 4.880625 75.04125-26.3090625 70.3846875-24.583125-3.7115625-9.0478125 30.4378125-30.99 32.326875-21.94125 1.835625-50.596875 45.48-82.1746875 60.496875-16.7390625 7.95-33.1903125 29.25375-59.00625 30.208125-22.8815625 0.886875-56.32125-19.348125-56.32125-3.75 0 50.2415625-5.0878125 86.0925-6.133125 100.41-0.84375 11.503125-7.51875 3.8746875 23.413125 3.13125 16.8346875-0.4509375 8.611875 33.81375 25.275 35.1515625 16.365 1.295625 55.36125-15.31875 65.296875-8.6971875 9.230625 6.1659375 67.8478125-153.8690625 67.8478125-26.4534375 0 15.118125-7.8290625 41.40375 0 55.7221875 30.965625 56.58 59.955 102.6928125 57.3515625 109.438125-1.4765625 3.7978125-31.68 6.93375-55.846875-1.1746875-8.1553125-2.7234375 2.595-15.496875-9.1190625-18.225-43.888125-10.1325-82.6640625 11.833125-69.0853125 32.4796875 13.9040625 21.159375 64.284375 9.230625 68.701875 51.6796875 2.540625 24.315 4.64625 52.475625 6.05625 73.4053125 59.06625-9.2371875 52.56375 76.6565625-35.263125 85.850625 177.680625-2.0784375 328.2459375-116.8275 383.4965625-276.0815625-2.79375 2.5490625-6.0459375 4.0978125-9.800625 4.4765625-26.55375 66.328125-91.006875 18.32625-69.1425-40.1765625-117.15-90.054375-87.1621875-152.8621875-48.673125-188.8284375 20.2528125-18.9065625 39.5625-47.3409375 52.134375-67.7625-13.68375-39.9 50.420625-23.923125 82.035 43.790625-40.2140625-139.4653125-152.3971875-248.4478125-293.7796875-284.214375z"  horiz-adv-x="1024" />

    
    <glyph glyph-name="36" unicode="&#58975;" d="M839.96544569 672.92929138v-69.0487296c79.98304711-1.69519787 144.52872533-67.35935715 144.52872533-147.72688213 0-80.40830293-64.54567822-146.03168427-144.52872533-147.80261263v-68.97299911c0-101.46137885-82.48797867-183.98431005-183.90857956-183.98431004h-69.01377706c-1.77092835-79.98304711-67.37683342-144.4937728-147.78513636-144.4937728S293.24957013-24.595114670000044 291.49611805 55.387932449999994H222.48234098c-101.42060089 0-183.92605582 82.5229312-183.92605583 183.98431004V387.17485511h93.6087097c38.02835627 0 68.97299911 30.94464285 68.9729991 68.97299911s-30.94464285 68.97299911-68.9729991 68.97299911H38.55628515V672.92929138c0 101.38564835 82.50545493 183.90857955 183.92605583 183.90857955h147.80261262v-93.60870968c0-38.02835627 30.94464285-68.97299911 68.97299911-68.97299912s68.97299911 30.94464285 68.97299911 68.97299912V856.83787093h147.82591431c101.42642631 0 183.90857955-82.5229312 183.90857956-183.90857955z m-252.9165312 90.29986987c0-81.44522809-66.28165405-147.80261262-147.78513636-147.80261263s-147.80261262 66.35155911-147.80261262 147.80261263v14.77909617h-68.97299911c-57.94547485 0-105.09644231-47.11018951-105.09644231-105.07896604v-68.97299911h14.77909618c81.50348231 0 147.80261262-66.35738453 147.80261262-147.80261262 0-81.52095858-66.29913031-147.80261262-147.80261262-147.80261263H117.38589867v-68.97299911c0-57.96877653 47.15096747-105.15469653 105.09644231-105.15469653h147.80261262v-75.52077369c0-38.02835627 30.94464285-68.97299911 68.97299911-68.97299911s68.97299911 30.94464285 68.97299911 68.97299911v75.52077369h147.82591431c57.92799858 0 105.07896605 47.19174542 105.07896605 105.15469653V387.17485511h75.55572622c38.02835627 0 68.97299911 30.94464285 68.97299911 68.97299911s-30.94464285 68.97299911-68.97299911 68.97299911h-75.55572622V672.92929138c0 57.96877653-47.15096747 105.07896605-105.07896605 105.07896604h-69.01377706l0.00582542-14.77909617zM748.01115591-89.10584035a39.39150507 39.39150507 0 0 0-39.41480676 39.41480675 39.39150507 39.39150507 0 0 0 39.41480676 39.41480675c86.95025209 0 157.65922702 70.74392747 157.65922702 157.65922703a39.39150507 39.39150507 0 0 0 39.41480676 39.41480675 39.39150507 39.39150507 0 0 0 39.41480676-39.41480675c0-130.40790187-106.08093867-236.48884053-236.48884054-236.48884053z"  horiz-adv-x="1024" />

    
    <glyph glyph-name="35" unicode="&#58946;" d="M512 583.4723202348878c-15.149797050342714 0-25.249660369730368-10.099864700228474-25.249660369730368-25.249660369730368V409.24966036973035h-148.97299949542716c-15.149797050342714 0-25.249660369730368-10.099864700228474-25.249660369730368-25.249660369730368s10.099864700228474-25.249660369730368 25.249660369730368-25.249660369730368H486.75033963026965v-148.97299949542716c0-15.149797050342714 10.099864700228474-25.249660369730368 25.249660369730368-25.249660369730368s25.249660369730368 10.099864700228474 25.249660369730368 25.249660369730368V358.75033963026965h151.49796498006387c15.149797050342714 0 25.249660369730368 10.099864700228474 25.249660369730368 25.249660369730368s-10.099864700228474 25.249660369730368-25.249660369730368 25.249660369730368h-151.49796498006387v148.97299949542716c0 15.149797050342714-10.099864700228474 25.249660369730368-25.249660369730368 25.249660369730368zM120.63025874581592 131.50339216017392c7.574897834750945-12.624830184865184 22.72469488509366-15.149797050342714 35.34952506995885-7.574897834750945 12.624830184865184 7.574897834750945 15.149797050342714 22.72469488509366 7.574897834750945 35.34952506995885-42.92442290470979 65.64911778980346-65.64911778980346 143.92306576447208-65.64911778980346 224.72198060461824 0 229.77191295473253 186.84749005002274 416.6194030047552 416.61940162391437 416.6194030047552S928.6194030047552 613.7719129547326 928.6194030047552 384 741.7719129547326-32.61940300475521 512-32.61940300475521c-108.57354069451323 0-209.57218493511638 40.399457420073084-287.84613290978496 116.14843991010503-10.099864700228474 10.099864700228474-25.249660369730368 10.099864700228474-35.34952506995885 0-10.099864700228474-10.099864700228474-10.099864700228474-25.249660369730368 0-35.34952506995885 88.37381267489712-83.32388032478289 201.9972857195246-131.2982355796069 323.19565797974377-131.2982355796069 257.54654018994034 0 467.1187237442159 209.57218493511638 467.1187237442159 467.1187237442159S769.5465401899403 851.1187237442159 512 851.1187237442159 44.88127625578409 641.5465401899403 44.88127625578409 384c0-90.89877815953383 27.774627235207902-176.74762534979425 75.74898249003193-252.49660783982617z"  horiz-adv-x="1024" />

    
    <glyph glyph-name="34" unicode="&#59228;" d="M955.733333 541.013333L561.493333 307.20000000000005c-29.013333-17.066667-64.853333-17.066667-93.866666 0L68.266667 541.013333c-13.653333 8.533333-23.893333 23.893333-23.893334 40.96S52.906667 614.4 68.266667 622.933333L462.506667 853.333333c29.013333 17.066667 64.853333 17.066667 93.866666 0L955.733333 621.226667c13.653333-8.533333 23.893333-23.893333 23.893334-40.96 0-15.36-8.533333-30.72-23.893334-39.253334z m0 0M955.733333 440.32l-42.666666 25.6-42.666667-23.893333 63.146667-37.546667c1.706667 0 1.706667-1.706667 1.706666-3.413333s0-3.413333-1.706666-3.413334L539.306667 162.133333c-15.36-8.533333-35.84-8.533333-51.2 0L88.746667 395.946667c-1.706667 1.706667-3.413333 3.413333-3.413334 5.12 0 1.706667 0 3.413333 1.706667 3.413333l63.146667 37.546667-42.666667 23.893333-42.666667-25.6c-13.653333-8.533333-23.893333-23.893333-23.893333-40.96s8.533333-32.426667 23.893333-40.96l399.36-233.813333c29.013333-17.066667 64.853333-17.066667 93.866667 0L955.733333 360.106667c13.653333 8.533333 23.893333 23.893333 23.893334 40.96s-8.533333 30.72-23.893334 39.253333z m0 0M955.733333 259.41333299999997l-42.666666 25.6-42.666667-23.893333 63.146667-37.546667c1.706667 0 1.706667-1.706667 1.706666-3.413333s0-3.413333-1.706666-3.413333L539.306667-18.77333299999998c-15.36-8.533333-35.84-8.533333-51.2 0L88.746667 215.03999999999996c-1.706667 0-1.706667 1.706667-1.706667 3.413333s0 3.413333 1.706667 3.413334l63.146666 37.546666-42.666666 23.893334-42.666667-25.6c-13.653333-8.533333-23.893333-23.893333-23.893333-40.96s8.533333-32.426667 23.893333-40.96l399.36-233.813334c29.013333-17.066667 64.853333-17.066667 93.866667 0L955.733333 179.20000000000005c13.653333 8.533333 23.893333 23.893333 23.893334 40.96 0 15.36-8.533333 30.72-23.893334 39.253333z m0 0"  horiz-adv-x="1024" />

    
    <glyph glyph-name="30" unicode="&#58966;" d="M512-96C246.92-96 32 118.91999999999996 32 384S246.92 864 512 864s480-214.92 480-480-214.92-480-480-480z m0 79.99999969c220.92 0 400.00000031 179.08000031 400.00000031 400.00000031S732.92 784.00000031 512 784.00000031 111.99999969 604.9200000000001 111.99999969 384s179.08000031-400.00000031 400.00000031-400.00000031z m-40.00000031 440.00000062a40.00000031 40.00000031 0 0 0 80.00000062 0v-280.00000031a40.00000031 40.00000031 0 0 0-80.00000062 0v280.00000031z m36 127.99999969a55.99999969 55.99999969 0 1 0 0 112.00000031 55.99999969 55.99999969 0 0 0 0-112.00000031z"  horiz-adv-x="1024" />

    
    <glyph glyph-name="5" unicode="&#58893;" d="M796.8-64H634.24v81.28h163.2a81.28 81.28 0 0 1 81.28 81.28V261.76H960v-163.2A163.2 163.2 0 0 0 796.8-64z m81.92 732.8a81.28 81.28 0 0 1-81.28 81.28H634.24V832h163.2A163.2 163.2 0 0 0 960 668.8v-162.56h-81.28zM389.76 750.72H227.2a81.28 81.28 0 0 1-81.92-81.92v-162.56H64V668.8A163.2 163.2 0 0 0 227.2 832h162.56zM145.28 99.20000000000005a81.28 81.28 0 0 1 81.28-81.28h163.2V-64H227.2A163.2 163.2 0 0 0 64 99.20000000000005V261.76h81.28z"  horiz-adv-x="1024" />

    
    <glyph glyph-name="33" unicode="&#58890;" d="M902.66510222 705.56330667c-59.41930667 0-108.35285333-48.35100445-108.35285334-107.77031112 0-30.29219555 12.81592889-57.67168 32.62236445-77.47811555L702.27057778 367.10627554999996c-17.47626667 12.81592889-39.61287111 20.38897778-62.91456 20.38897778-33.78744889 0-63.49710222-15.14609778-83.88608-39.61287111l-69.90506667 95.53692445c27.96202667 19.80643555 46.02083555 51.84625778 46.02083555 88.54641778 0 59.41930667-48.35100445 107.77031111-108.35285333 107.7703111s-108.35285333-48.35100445-108.35285333-107.7703111c0-5.82542222 0.58254222-11.65084445 1.16508444-17.47626667L209.43985778 435.26371555c-19.80643555 20.38897778-47.18592 33.20490667-78.06065778 33.20490667-59.41930667 0-108.35285333-48.35100445-108.35285334-107.77031111s48.35100445-107.77031111 108.35285334-107.77031111c59.41930667 0 108.35285333 48.35100445 108.35285333 107.77031111 0 15.14609778-2.91271111 29.12711111-8.73813333 41.94304l99.61472 73.40032c19.22389333-31.45728 53.01134222-51.84625778 92.62421333-51.84625778 8.73813333 0 17.47626667 1.16508445 25.63185778 2.91271112l86.21624889-118.25607112c-2.91271111-9.32067555-4.07779555-19.22389333-4.07779556-29.70965333 0-59.41930667 48.35100445-107.77031111 108.35285334-107.77031111 59.41930667 0 108.35285333 48.35100445 108.35285333 107.77031111 0 22.13660445-6.40796445 42.52558222-18.05880889 59.41930667l130.48945778 159.61656888c12.81592889-5.82542222 27.37948445-8.73813333 42.52558222-8.73813333 60.00184889 0 108.35285333 48.35100445 108.35285333 107.77031111 0 60.00184889-48.35100445 108.35285333-108.35285333 108.35285334zM131.96174222 311.18222221999997c-27.37948445 0-49.51608889 22.13660445-49.51608889 49.51608889s22.13660445 49.51608889 49.51608889 49.51608889 49.51608889-22.13660445 49.51608889-49.51608889-22.13660445-49.51608889-49.51608889-49.51608889z m241.75502222 220.78350223c0 27.37948445 22.13660445 49.51608889 49.51608889 49.51608888s49.51608889-22.13660445 49.51608889-49.51608888-22.13660445-49.51608889-49.51608889-49.5160889-49.51608889 22.13660445-49.51608889 49.5160889z m266.22179556-302.92195556c-27.37948445 0-49.51608889 22.13660445-49.51608889 49.51608889s22.13660445 49.51608889 49.51608889 49.51608889 49.51608889-22.13660445 49.51608888-49.51608889-22.13660445-49.51608889-49.51608888-49.51608889z m262.72654222 318.65059556c-27.37948445 0-49.51608889 22.13660445-49.51608889 49.51608888s22.13660445 49.51608889 49.51608889 49.51608889 49.51608889-22.13660445 49.51608889-49.51608889c0.58254222-27.37948445-21.55406222-49.51608889-49.51608889-49.51608888z"  horiz-adv-x="1024" />

    
    <glyph glyph-name="32" unicode="&#58931;" d="M808.69161465 655.70468086a82.78803369 82.78803369 0 0 1-58.27148613 26.32283174H142.39846953a82.63750957 82.63750957 0 0 1-57.9892544-26.32283174 82.31764658 82.31764658 0 0 1-22.35276914-59.32515234v-576.4493127a82.65632519 82.65632519 0 0 1 22.35276914-59.60738408 82.59987833 82.59987833 0 0 1 58.27148614-26.30401612H750.70236026a82.39290908 82.39290908 0 0 1 57.98925439 26.30401612 82.05423047 82.05423047 0 0 1 22.35276914 59.32515146V596.07848116a82.50580107 82.50580107 0 0 1-22.35276914 59.6261997M956.75048633 803.10501095A97.27593926 97.27593926 0 0 1 888.18694209 834H364.98538672c-23.98971445 0-43.50134883-19.49281875-43.50134882-43.48253319s19.51163437-43.48253319 43.50134882-43.48253232h524.48100644a11.7220333 11.7220333 0 0 0 8.03420243-3.65020051 11.7784793 11.7784793 0 0 0 3.06692053-8.76800477v-580.43819181h4.4216332a42.25952813 42.25952813 0 0 1 34.13124844-27.35768144l2.14496279-0.15052413 0.56446435 0.03763125a42.25952813 42.25952813 0 0 1 29.69079873 13.49068624 41.67624902 41.67624902 0 0 1 11.42098594 29.99184696V733.16793838a96.67384453 96.67384453 0 0 1-26.19112324 69.93707257"  horiz-adv-x="1047" />

    
    <glyph glyph-name="31" unicode="&#59078;" d="M989.86666667 384c0-88.74666667-197.97333333-286.72-477.86666667-286.72-273.06666667 0-477.86666667 191.14666667-477.86666667 286.72s204.8 286.72 477.86666667 286.72c279.89333333 0 477.86666667-191.14666667 477.86666667-286.72M512 616.10666667C382.29333333 616.10666667 279.89333333 513.70666667 279.89333333 384s102.4-232.10666667 232.10666667-232.10666667 232.10666667 102.4 232.10666667 232.10666667S641.70666667 616.10666667 512 616.10666667m0-81.92c-81.92 0-143.36-68.26666667-143.36-150.18666667s68.26666667-150.18666667 143.36-150.18666667c81.92 0 143.36 68.26666667 143.36 150.18666667S593.92 534.18666667 512 534.18666667"  horiz-adv-x="1024" />

    
    <glyph glyph-name="29" unicode="&#60260;" d="M880.288 663.52L560.192 850.88a95.648 95.648 0 0 1-96.64 0L143.68 663.52A96.64 96.64 0 0 1 96 580.096v-397.664c0-34.784 18.624-66.88 48.736-84l320-181.92a95.52 95.52 0 0 1 94.496 0l320 181.92A96.576 96.576 0 0 1 928 182.43200000000002V580.096a96.64 96.64 0 0 1-47.712 83.424zM864 182.43200000000002c0-11.584-6.208-22.304-16.256-28l-320-181.92a31.776 31.776 0 0 0-31.488 0l-320 181.92A32.192 32.192 0 0 0 160 182.43200000000002V580.096c0 11.456 6.048 22.048 15.904 27.808l319.872 187.36a31.84 31.84 0 0 0 32.192 0l320.128-187.392c9.856-5.728 15.904-16.32 15.904-27.776v-397.664zM512 576a192 192 0 1 1 0-384 192 192 0 0 1 0 384z m0-320a128 128 0 1 0 0 256 128 128 0 0 0 0-256z"  horiz-adv-x="1024" />

    
    <glyph glyph-name="28" unicode="&#60261;" d="M243.3024 349.86666667H136.53333333a34.13333333 34.13333333 0 0 0-34.13333333 34.13333333V657.06666667h512v-273.06666667a34.13333333 34.13333333 0 0 0-34.13333333-34.13333333h-58.64106667a34.13333333 34.13333333 0 0 1 0-68.26666667H580.26666667a102.4 102.4 0 0 1 102.4 102.4V759.46666667a102.4 102.4 0 0 1-102.4 102.4H136.53333333a102.4 102.4 0 0 1-102.4-102.4v-375.46666667a102.4 102.4 0 0 1 102.4-102.4h106.76906667a34.13333333 34.13333333 0 0 1 0 68.26666667zM102.4 759.46666667a34.13333333 34.13333333 0 0 0 34.13333333 34.13333333h443.73333334a34.13333333 34.13333333 0 0 0 34.13333333-34.13333333v-34.13333334H102.4V759.46666667zM887.46666667 486.4h-96.93866667a34.13333333 34.13333333 0 0 1 0-68.26666667H887.46666667a34.13333333 34.13333333 0 0 0 34.13333333-34.13333333v-273.06666667H409.6v273.06666667a34.13333333 34.13333333 0 0 0 34.13333333 34.13333333h67.2768a34.13333333 34.13333333 0 0 1 0 68.26666667H443.73333333a102.4 102.4 0 0 1-102.4-102.4v-375.46666667a102.4 102.4 0 0 1 102.4-102.4h443.73333334a102.4 102.4 0 0 1 102.4 102.4V384a102.4 102.4 0 0 1-102.4 102.4z m34.13333333-477.86666667a34.13333333 34.13333333 0 0 0-34.13333333-34.13333333H443.73333333a34.13333333 34.13333333 0 0 0-34.13333333 34.13333333v34.13333334h512v-34.13333334z"  horiz-adv-x="1024" />

    
    <glyph glyph-name="27" unicode="&#60262;" d="M782.208 365.28L724.288 448l57.92 82.72a32 32 0 0 1-20.672 49.856l-99.456 17.536-17.536 99.456a32 32 0 0 1-49.856 20.672L512 660.288l-82.72 57.92a32 32 0 0 1-49.856-20.672l-17.536-99.456-99.456-17.504a32 32 0 0 1-20.672-49.856L299.712 448l-57.92-82.72a32 32 0 0 1 20.672-49.856l99.456-17.536 17.536-99.456a32 32 0 0 1 49.856-20.672L512 235.712l82.72-57.92a32 32 0 0 1 49.856 20.672l17.536 99.456 99.456 17.536a31.968 31.968 0 0 1 20.64 49.824z m-123.2 64.352l41.952-59.904-72.032-12.704a32 32 0 0 1-25.952-25.952l-12.704-72.032-59.904 41.952a32 32 0 0 1-36.704 0l-59.904-41.952-12.704 72.032a32 32 0 0 1-25.952 25.952l-72.032 12.704 41.952 59.904a32 32 0 0 1 0 36.704l-41.952 59.904 72.032 12.704a32 32 0 0 1 25.952 25.952l12.704 72.032 59.904-41.952a32 32 0 0 1 36.704 0l59.904 41.952 12.704-72.032a32 32 0 0 1 25.952-25.952l72.032-12.704-41.952-59.904a32 32 0 0 1 0-36.704zM512 861.088c-243.008 0-440-196.992-440-440a438.72 438.72 0 0 1 133.344-315.552 32 32 0 1 1 44.608 45.888 374.752 374.752 0 0 0-113.952 269.664c0 207.648 168.352 376 376 376s376-168.352 376-376c0-99.136-38.496-192.096-106.144-261.824a32 32 0 1 1 45.92-44.576 438.56 438.56 0 0 1 124.224 306.4c0 243.008-196.992 440-440 440zM704 134.91200000000003a32 32 0 0 1-32-32v-107.104l-142.24 94.848-0.064 0.032a32 32 0 0 1-11.552 4.736c-2.048 0.416-4.096 0.032-6.144 0.032s-4.096 0.352-6.144-0.032c-4.096-0.8-8-2.4-11.552-4.736l-0.064-0.032L352-4.224000000000046V96a32 32 0 0 1-64 0v-160c0-0.992 0.48-1.856 0.576-2.848a32.256 32.256 0 0 1 3.712-12.224c0.48-0.864 0.544-1.856 1.088-2.688 0.576-0.896 1.504-1.344 2.176-2.144a31.36 31.36 0 0 1 21.472-11.488c1.024-0.096 1.92-0.608 2.976-0.608 0.992 0 1.856 0.48 2.848 0.576a32.256 32.256 0 0 1 12.256 3.712c0.864 0.48 1.856 0.544 2.688 1.088L512 25.535999999999945l174.24-116.16c14.688-9.792 34.56-5.824 44.384 8.864a31.584 31.584 0 0 1 4.768 21.664c0.096 1.056 0.608 1.952 0.608 3.04v159.968a32 32 0 0 1-32 32z"  horiz-adv-x="1024" />

    
    <glyph glyph-name="26" unicode="&#60266;" d="M955.73333333 349.86666667h-102.4v68.26666666h102.4a34.13333333 34.13333333 0 0 1 0 68.26666667h-136.53333333a34.13333333 34.13333333 0 0 1-34.13333333-34.13333333v-243.02933334A153.46346667 153.46346667 0 0 1 819.2-93.86666666999997a153.6 153.6 0 0 1 153.6 153.6 153.4976 153.4976 0 0 1-119.46666667 149.504V281.6h102.4a34.13333333 34.13333333 0 0 1 0 68.26666667z m-51.2-290.13333334a85.33333333 85.33333333 0 1 0-170.66666666 0 85.33333333 85.33333333 0 0 0 170.66666666 0zM576.64853333-15.73546667000005l-0.9216-0.3072c-212.00213333-15.42826667-447.65866667 2.62826667-497.69813333 28.70613334 12.01493333 32.22186667 88.40533333 79.7696 237.73866667 96.1536a34.13333333 34.13333333 0 0 1 30.4128 33.92853333v40.58453333c0 11.5712-5.87093333 22.35733333-15.59893334 28.672-54.61333333 35.29386667-102.53653333 93.3888-131.4816 159.3344a34.4064 34.4064 0 0 1-16.04266666 16.86186667c-9.25013333 4.608-23.17653333 21.23093333-36.9664 74.3424-5.29066667 20.34346667-1.67253333 34.95253333 11.33226666 45.90933333 7.2704 6.144 11.63946667 15.01866667 12.0832 24.54186667C176.81066667 696.18346667 267.94666667 793.6 413.21813333 793.6c142.37013333 0 229.44426667-92.29653333 238.86506667-253.20106667 0.64853333-10.82026667 6.38293333-20.6848 15.42826667-26.58986666 13.85813333-9.04533333 18.0224-21.98186667 13.2096-40.68693334-13.38026667-51.5072-26.69226667-62.3616-31.8464-64.6144a34.0992 34.0992 0 0 1-18.19306667-19.38773333c-26.65813333-72.32853333-77.17546667-138.37653333-135.09973333-176.70826667a34.13333333 34.13333333 0 0 1-15.29173334-28.4672v-41.1648a34.13333333 34.13333333 0 0 1 30.4128-33.92853333c12.04906667-1.29706667 30.89066667-4.23253333 56.59306667-8.704 18.5344-3.10613333 36.2496 9.25013333 39.45813333 27.78453333s-9.25013333 36.2496-27.78453333 39.45813334a1813.2992 1813.2992 0 0 1-23.58613333 3.95946666c57.68533333 44.81706667 105.74506667 109.6704 134.89493333 182.44266667 32.11946667 22.35733333 47.03573333 65.57013333 56.5248 102.16106667 10.5472 40.61866667 0.2048 78.30186667-27.71626667 103.97013333C702.464 746.63253333 586.41066667 861.86666667 413.21813333 861.86666667c-179.2 0-297.43786667-119.22773333-311.15946666-312.18346667-24.33706667-27.30666667-32.39253333-64.47786667-22.05013334-104.2432 14.91626667-57.4464 34.03093333-92.5696 61.09866667-111.47946667 30.1056-64.23893333 75.776-121.7536 128.512-162.33813333-160.18773333-24.8832-261.56373333-88.8832-261.56373333-167.56053333 0-9.69386667 3.00373333-24.064 17.27146666-37.34186667 46.08-42.73493333 225.5872-56.38826667 384.34133334-56.38826667 65.50186667 0 127.488 2.32106667 175.06986666 5.90506667 2.6624 0.2048 5.29066667 0.7168 7.85066667 1.536l4.8128 1.536a34.13333333 34.13333333 0 0 1 22.08426667 42.9056 33.8944 33.8944 0 0 1-42.83733334 22.05013333z"  horiz-adv-x="1024" />

    
    <glyph glyph-name="25" unicode="&#60267;" d="M613.5808-25.600000000000023a34.13333333 34.13333333 0 1 0 0-68.26666667H170.66666667a102.4 102.4 0 0 0-102.4 102.4V759.46666667a102.4 102.4 0 0 0 102.4 102.4h580.26666666a102.4 102.4 0 0 0 102.4-102.4 34.13333333 34.13333333 0 0 0-68.26666666 0 34.13333333 34.13333333 0 0 1-34.13333334 34.13333333H170.66666667a34.13333333 34.13333333 0 0 1-34.13333334-34.13333333v-750.93333334a34.13333333 34.13333333 0 0 1 34.13333334-34.13333333h442.91413333zM853.33333333 305.32266667v-156.43306667c0-45.49973333-68.26666667-45.49973333-68.26666666 0v156.43306667c0 45.53386667 68.26666667 45.53386667 68.26666666 0zM273.06666667 588.8a34.13333333 34.13333333 0 1 0 0 68.26666667h238.93333333a34.13333333 34.13333333 0 0 0 0-68.26666667H273.06666667zM273.06666667 418.13333333a34.13333333 34.13333333 0 0 0 0 68.26666667h136.53333333a34.13333333 34.13333333 0 0 0 0-68.26666667H273.06666667zM647.91893333-58.23146667000003a34.13333333 34.13333333 0 1 0-68.26666666 0L580.26666667 76.79999999999995a102.4 102.4 0 0 0 102.4 102.4l136.26026666-1.2288a34.13333333 34.13333333 0 1 0 0-68.26666667L682.66666667 110.93333332999998a34.13333333 34.13333333 0 0 1-34.13333334-34.13333333l-0.6144-135.03146667zM646.31466667-80.69119999999998a34.13333333 34.13333333 0 1 0-47.27466667 49.28853333l192.4096 184.5248a34.13333333 34.13333333 0 1 0 47.24053333-49.2544l-192.37546666-184.55893333zM905.48906667 573.30346667a33.51893333 33.51893333 0 0 1 3.54986666 47.37706666l-0.44373333 0.54613334a34.13333333 34.13333333 0 0 1-47.88906667 3.584L401.408 234.35946666999996l-16.21333333-55.296 62.22506666 4.84693333 458.06933334 389.39306667z m55.05706666 92.16a101.71733333 101.71733333 0 0 0-10.0352-143.4624l-467.28533333-397.27786667a34.13333333 34.13333333 0 0 0-19.456-8.02133333l-122.60693333-9.48906667a34.13333333 34.13333333 0 0 0-35.39626667 43.65653333l33.00693333 112.50346667a34.13333333 34.13333333 0 0 0 10.6496 16.384L816.4352 676.79573333a102.4 102.4 0 0 0 143.6672-10.78613333l0.44373333-0.54613333z"  horiz-adv-x="1024" />

    
    <glyph glyph-name="24" unicode="&#60344;" d="M800 160H448a32 32 0 0 1 0-64h352a32 32 0 0 1 0 64zM800 416H448a32 32 0 0 1 0-64h352a32 32 0 0 1 0 64zM800 672H448a32 32 0 0 1 0-64h352a32 32 0 0 1 0 64zM304 160h-64a32 32 0 0 1 0-64h64a32 32 0 0 1 0 64zM304 416h-64a32 32 0 0 1 0-64h64a32 32 0 0 1 0 64zM304 672h-64a32 32 0 0 1 0-64h64a32 32 0 0 1 0 64zM864 800H160a96 96 0 0 1-96-96v-640a96 96 0 0 1 96-96h704a96 96 0 0 1 96 96V704a96 96 0 0 1-96 96z m32-736a32 32 0 0 0-32-32H160a32 32 0 0 0-32 32v160h672a32 32 0 0 1 0 64H128v192h672a32 32 0 0 1 0 64H128V704a32 32 0 0 0 32 32h704a32 32 0 0 0 32-32v-640z"  horiz-adv-x="1024" />

    
    <glyph glyph-name="23" unicode="&#60378;" d="M960 192h-63.616v167.392a32 32 0 0 1-32 32H544V480h160a32 32 0 0 1 32 32V800a32 32 0 0 1-32 32H320a32 32 0 0 1-32-32v-288a32 32 0 0 1 32-32h160v-88.608H161.984a32 32 0 0 1-32-31.968L129.792 192H64a32 32 0 0 1-32-32v-192a32 32 0 0 1 32-32h192a32 32 0 0 1 32 32v192a32 32 0 0 1-32 32H193.792l0.16 135.392H480V192h-64a32 32 0 0 1-32-32v-192a32 32 0 0 1 32-32h192a32 32 0 0 1 32 32v192a32 32 0 0 1-32 32h-64v135.392h288.384V192H768a32 32 0 0 1-32-32v-192a32 32 0 0 1 32-32h192a32 32 0 0 1 32 32v192a32 32 0 0 1-32 32zM352 768h320v-224H352V768zM224 0H96v128h128v-128z m352 0h-128v128h128v-128z m352 0h-128v128h128v-128z"  horiz-adv-x="1024" />

    
    <glyph glyph-name="4" unicode="&#58882;" d="M730.45333333-14.475061330000017v109.22666666c0 60.6814816 46.52246933 109.22666667 109.22666667 109.22666667h109.22666667c22.24987627 0 36.40888853 14.15901227 36.40888853 36.40888853s-14.15901227 36.40888853-36.40888853 36.40888854h-109.22666667c-101.13580267 0-182.0444448-78.8859264-182.0444448-182.04444374v-109.22666666c0-22.24987627 14.15901227-36.40888853 36.4088896-36.4088896s36.40888853 14.15901227 36.40888853 36.4088896zM657.6355552 782.47506133v-109.22666666c0-101.13580267 78.8859264-182.0444448 182.0444448-182.04444374h109.22666667c22.24987627 0 36.40888853 14.15901227 36.40888853 36.40888854s-16.181728 38.43160533-38.43160427 38.43160533h-109.22666666c-60.6814816 0-109.22666667 46.52246933-109.22666667 109.22666667V782.47506133c0 22.24987627-14.15901227 36.40888853-36.4088896 36.4088896s-34.3861728-14.15901227-34.3861728-36.4088896zM366.3644448-14.475061330000017v109.22666666c0 101.13580267-78.8859264 182.0444448-182.0444448 182.04444374H77.11604907c-22.24987627 0-36.40888853-14.15901227-36.40888854-36.40888854S54.8661728 201.95555520000005 77.11604907 201.95555520000005h109.22666666c60.6814816 0 109.22666667-46.52246933 109.22666667-109.22666667v-109.22666666c0-22.24987627 14.15901227-36.40888853 36.4088896-36.40888854s34.3861728 16.181728 34.3861728 38.43160534zM293.54666667 782.47506133v-109.22666666c0-60.6814816-46.52246933-109.22666667-109.22666667-109.22666667H77.11604907c-22.24987627 0-36.40888853-14.15901227-36.40888854-36.40888853s14.15901227-36.40888853 36.40888854-36.40888854h109.22666666c101.13580267 0 182.0444448 78.8859264 182.0444448 182.04444374V782.47506133c0 22.24987627-14.15901227 36.40888853-36.40888853 36.4088896s-38.43160533-14.15901227-38.43160533-36.4088896z"  horiz-adv-x="1024" />

    
    <glyph glyph-name="22" unicode="&#60424;" d="M960 480V704l-73.056-73.056a447.712 447.712 0 0 1-373.6 201.088C265.92 832.032 65.312 631.456 65.312 384S265.92-64.03200000000004 513.344-64.03200000000004a448.064 448.064 0 0 1 415.232 279.488 38.368 38.368 0 1 1-71.136 28.896 371.36 371.36 0 0 0-344.096-231.584C308.32 12.768000000000029 142.112 178.976 142.112 384S308.32 755.232 513.344 755.232c132.448 0 251.936-70.08 318.016-179.84L736 480h224z"  horiz-adv-x="1024" />

    
    <glyph glyph-name="21" unicode="&#60435;" d="M919.264-9.984000000000037l-138.912 138.912C851.808 203.67999999999995 896 304.672 896 416c0 229.376-186.624 416-416 416S64 645.376 64 416s186.624-416 416-416c95.008 0 182.432 32.384 252.544 86.208l141.44-141.44a31.904 31.904 0 0 1 45.248 0 32 32 0 0 1 0.032 45.248zM128 416C128 610.0799999999999 285.92 768 480 768s352-157.92 352-352-157.92-352-352-352S128 221.91999999999996 128 416zM625.792 448H336a32 32 0 0 1 0-64h289.792a32 32 0 1 1 0 64z"  horiz-adv-x="1024" />

    
    <glyph glyph-name="20" unicode="&#60436;" d="M919.264-9.984000000000037l-138.912 138.912C851.808 203.67999999999995 896 304.672 896 416c0 229.376-186.624 416-416 416S64 645.376 64 416s186.624-416 416-416c95.008 0 182.432 32.384 252.544 86.208l141.44-141.44a31.904 31.904 0 0 1 45.248 0 32 32 0 0 1 0.032 45.248zM128 416C128 610.0799999999999 285.92 768 480 768s352-157.92 352-352-157.92-352-352-352S128 221.91999999999996 128 416zM625.792 448H512v112a32 32 0 0 1-64 0V448h-112a32 32 0 0 1 0-64H448v-112a32 32 0 1 1 64 0V384h113.792a32 32 0 1 1 0 64z"  horiz-adv-x="1024" />

    
    <glyph glyph-name="19" unicode="&#60448;" d="M842.4 240.736C827.808 339.424 741.664 416 639.52 416a203.648 203.648 0 0 1-163.424-81.152 197.024 197.024 0 0 1-204.768-196.64c0-108.512 88.288-196.832 197.344-196.832h320.512c94.208 0 170.848 68.864 170.848 153.504-0.032 67.52-48.16 125.664-117.632 145.856z m-53.248-235.392H468.16a132.992 132.992 0 0 0-132.832 132.832 132.96 132.96 0 0 0 152 131.456l20.832-3.04 11.008 17.952A140.32 140.32 0 0 0 639.52 352c76.192 0 139.456-61.952 141.024-138.048l0.576-27.04 26.752-3.968C858.944 175.36 896 138.30399999999997 896 94.84799999999996c0-49.344-47.936-89.504-106.848-89.504zM253.856-32H195.04C175.712-32 160-15.423999999999978 160 4.927999999999997V763.072C160 783.424 175.712 800 195.04 800h633.888C848.288 800 864 783.424 864 763.072v-410.944a32 32 0 1 1 64 0V763.072C928 818.72 883.552 864 828.928 864H195.04C140.448 864 96 818.72 96 763.072v-758.144C96-50.72000000000003 140.448-96 195.04-96h58.784a32 32 0 0 1 0.032 64zM672 672a32 32 0 0 1-32 32H288a32 32 0 0 1 0-64h352a32 32 0 0 1 32 32zM288 544a32 32 0 0 1 0-64h192a32 32 0 0 1 0 64H288z"  horiz-adv-x="1024" />

    
    <glyph glyph-name="18" unicode="&#60450;" d="M808.192 649.472a320.16 320.16 0 0 1-592.352 0A238.592 238.592 0 0 1 32 416.064c0-132.352 107.648-240 240-240h91.488a32 32 0 1 1 0 64H272a176.192 176.192 0 0 0-176 176 175.04 175.04 0 0 0 148.48 173.888l19.04 2.976 6.24 18.24C305.248 714.592 402.592 784.064 512 784.064a256 256 0 0 0 242.208-172.896l6.272-18.24 19.04-2.976A175.04 175.04 0 0 0 928 416.064c0-97.024-78.976-176-176-176h-97.28a32 32 0 1 1 0-64h97.28c132.352 0 240 107.648 240 240a238.592 238.592 0 0 1-183.808 233.408zM649.792 106.11199999999997L544 19.519999999999982V448.064a32 32 0 0 1-64 0V19.519999999999982l-106.752 87.424a31.968 31.968 0 1 1-40.544-49.504l159.04-130.24a32 32 0 0 1 40.576 0l158.048 129.44a32 32 0 1 1-40.576 49.472z"  horiz-adv-x="1024" />

    
    <glyph glyph-name="17" unicode="&#60451;" d="M808.192 633.408a320.16 320.16 0 0 1-592.352 0A238.592 238.592 0 0 1 32 400C32 267.648 139.648 160 272 160h91.488a32 32 0 1 1 0 64H272A176.192 176.192 0 0 0 96 400a175.04 175.04 0 0 0 148.48 173.888l19.04 2.976 6.24 18.24C305.248 698.528 402.592 768 512 768a256 256 0 0 0 242.208-172.896l6.272-18.24 19.04-2.976A175.04 175.04 0 0 0 928 400c0-97.024-78.976-176-176-176h-97.28a32 32 0 1 1 0-64h97.28c132.352 0 240 107.648 240 240a238.592 238.592 0 0 1-183.808 233.408zM649.792 325.952a32 32 0 1 1 40.544 49.536l-158.048 129.408a32 32 0 0 1-40.576 0l-159.04-130.24a32.032 32.032 0 0 1 20.256-56.768 31.744 31.744 0 0 1 20.256 7.264L480 412.544V-16a32 32 0 0 1 64 0V412.544l105.792-86.592z"  horiz-adv-x="1024" />

    
    <glyph glyph-name="16" unicode="&#60458;" d="M512 64m-64 0a64 64 0 1 1 128 0 64 64 0 1 1-128 0ZM790.4 864H233.6C182.72 864 144 817.664 144 763.072v-758.144C144-49.66399999999999 182.72-96 233.6-96h556.8c50.88 0 89.6 46.336 89.6 100.928V763.072C880 817.664 841.28 864 790.4 864zM233.6 800h556.8c12.736 0 25.6-15.392 25.6-36.928V736h-608v27.072C208 784.608 220.864 800 233.6 800z m556.8-832H233.6c-12.736 0-25.6 15.392-25.6 36.928V672h608v-667.072c0-21.536-12.864-36.928-25.6-36.928zM704 336H320a32 32 0 1 1 0-64h384a32 32 0 1 1 0 64zM320 464h256.576a32 32 0 1 1 0 64H320a32 32 0 0 1 0-64z"  horiz-adv-x="1024" />

    
    <glyph glyph-name="58" unicode="&#58886;" d="M350.45974723 91.07705805l58.58174042-58.58044587 351.50856595 351.50338782-351.50856595 351.50338782-58.5882131-58.58303493 292.93070918-292.91905835z"  horiz-adv-x="1024" />

    
    <glyph glyph-name="3" unicode="&#58883;" d="M213.67648711 121.06592710999996c-27.91348148 0-50.54646045 22.6305517-50.54646044 50.54888771s22.63297897 50.55131497 50.54646044 50.55131496c27.918336 0 50.55495585-22.63297897 50.55495586-50.55131496s-22.63661985-50.5488877-50.55495586-50.54888771zM218.99703941 377.93185185000004c0 41.99401245 34.03502933 76.03632355 76.0423917 76.03632356 41.99522608 0 76.02904178-34.04231111 76.02904178-76.03632356 0-41.99401245-34.0338157-76.03632355-76.02904178-76.03632355-42.00008059 0-76.0423917 34.04231111-76.0423917 76.03632355z m302.71321126-215.15226074c-35.96227318 0-65.11487052 29.15259733-65.11487052 65.10758874 0 35.9671277 29.15259733 65.11487052 65.11487052 65.11487052 35.96105955 0 65.11365689-29.14895645 65.11365688-65.11487052 0-35.95499141-29.15259733-65.10758875-65.11365688-65.10758874z m307.98764563 147.80795259c-27.918336 0-50.55010133 22.63176533-50.55010133 50.54524682 0 27.92076325 22.63176533 50.55010133 50.55010133 50.55010133s50.55010133-22.62933808 50.55010133-50.55010133c0.00121363-27.91348148-22.63176533-50.54524682-50.55010133-50.54524682z m-224.81760712 37.12978489c-55.23592533 0-100.01279052 44.77807882-100.01279051 100.00308149 0 55.24320711 44.77807882 100.01400415 100.01279051 100.01400414s100.01279052-44.77079703 100.01279052-100.01400414c0-55.22500267-44.77686518-100.00308148-100.01279052-100.00308149z m139.90236919 273.95018904c-27.918336 0-50.55010133 22.63783348-50.55010134 50.55616948s22.63176533 50.55010133 50.55010134 50.55010134 50.55010133-22.63176533 50.55010133-50.55010134-22.63176533-50.55616948-50.55010133-50.55616948z m-656.08210962-612.47032888h846.6025434c18.62193303 0 33.85783941-15.24076089 33.8578394-33.87118934 0-18.62314667-15.23712-33.85419852-33.8578394-33.85419852H88.70054875c-18.62071941 0-33.86269392 15.23105185-33.86269393 33.85419852 0.00121363 18.63042845 15.23833363 33.87118933 33.86269393 33.87118934z m-33.8614803-34.08114727V821.71858489c0 18.62193303 15.24076089 33.85783941 33.87118933 33.85783941 18.62314667 0 33.85419852-15.23712 33.85419852-33.85783941l0.00121362-846.60254341c0-18.61950578-15.23226548-33.86269392-33.85419851-33.86269393-18.6328557-0.00121363-33.87240297 15.23833363-33.87240296 33.86269393z m33.8614803 34.08114727"  horiz-adv-x="1024" />

    
    <glyph glyph-name="15" unicode="&#60470;" d="M192 64a32 32 0 0 1 0-64h640a32 32 0 0 1 0 64H192z m0 64h640a96 96 0 0 0 0-192H192a96 96 0 0 0 0 192zM816 688m-48 0a48 48 0 1 1 96 0 48 48 0 1 1-96 0ZM208 688m-48 0a48 48 0 1 1 96 0 48 48 0 1 1-96 0ZM480 288a32 32 0 0 0 64 0v-160a32 32 0 0 0-64 0v160zM512 256a112 112 0 1 0 0 224 112 112 0 0 0 0-224z m0 64a48 48 0 1 1 0 96 48 48 0 0 1 0-96zM864 416a32 32 0 0 0 0 64h96a32 32 0 0 0 0-64h-96zM64 416a32 32 0 0 0 0 64h96a32 32 0 0 0 0-64H64zM480 832a32 32 0 0 0 64 0v-96a32 32 0 0 0-64 0V832zM272.448 96h-64v288a304 304 0 0 0 608 0v-288h-64v288a240 240 0 0 1-480 0v-288z"  horiz-adv-x="1024" />

    
    <glyph glyph-name="14" unicode="&#60471;" d="M448 0H163.04C143.904 0 128 16.32000000000005 128 36.928V731.072C128 751.6800000000001 143.904 768 163.04 768h569.92C752.096 768 768 751.6800000000001 768 731.072v-182.464a32 32 0 0 1 64 0V731.072C832 786.624 787.84 832 732.96 832H163.04C108.16 832 64 786.624 64 731.072v-694.144C64-18.624000000000024 108.16-64 163.04-64H448a32 32 0 0 1 0 64zM736 448a256 256 0 1 1 0-512 256 256 0 0 1 0 512z m0-448a192 192 0 1 0 0 384 192 192 0 0 0 0-384zM831.456 208H752v64a32 32 0 0 1-64 0v-96a32 32 0 0 1 32-32h111.456a32 32 0 0 1 0 64zM640 576a32 32 0 0 1-32 32H288a32 32 0 0 1 0-64h320a32 32 0 0 1 32 32zM288 352a32 32 0 0 1 0-64h80.288a32 32 0 0 1 0 64H288z"  horiz-adv-x="1024" />

    
    <glyph glyph-name="13" unicode="&#60507;" d="M832 181.33333332999996a128 128 0 0 1-125.28-101.824l-318.304 0.064c-8.352 5.568-13.44 43.616-16.448 69.76h92.384c14.592-19.328 37.568-32 63.648-32a80 80 0 1 1-78.4 96h-86.24c-11.616 63.136-38.336 128-122.144 128H96a32 32 0 1 1 0-64h145.248c32.32 0 47.136-19.776 56.704-64H96a32 32 0 0 1 0-64h211.552c6.72-60.064 15.584-133.824 82.24-133.824h318.176c0.8 0 1.44 0.384 2.208 0.448C726.272-36.36266666999995 774.4-74.66666667000004 832-74.66666667000004a128 128 0 0 1 0 256z m0-192a64 64 0 1 0 0.032 128.032A64 64 0 0 0 832-10.66666667000004zM96 405.33333333h384.512c1.344 0 2.496 0.608 3.776 0.768A127.744 127.744 0 0 1 608 309.33333332999996a128 128 0 0 1 0 256 127.744 127.744 0 0 1-123.712-96.768c-1.28 0.16-2.432 0.768-3.776 0.768H96a32 32 0 0 1 0-64z m512 96a64 64 0 1 0-0.032-128.032A64 64 0 0 0 608 501.33333333zM96 527.54133333h145.248c108.224 0 121.6 90.272 129.6 144.192 6.688 45.504 10.784 53.6 18.944 53.6h298.56c14.592-19.328 37.568-32 63.648-32a80 80 0 1 1-78.4 96h-283.808C323.52 789.33333333 313.888 724.2133333300001 307.52 681.10933333c-9.408-63.648-18.048-89.568-66.272-89.568H96a32 32 0 0 1 0-64z"  horiz-adv-x="1024" />

    
    <glyph glyph-name="12" unicode="&#60508;" d="M118.272 738.61414979c-13.824 0-25.73653334-4.98346668-35.66933333-14.91626666-9.96693333-9.96693333-14.95040001-21.84533333-14.95039999-35.66933333s4.98346668-25.73653334 14.95039999-35.70346667c9.9328-9.96693333 21.84533333-14.91626667 35.66933333-14.91626667 13.824 0 25.73653334 4.98346668 35.66933334 14.9504 9.96693333 9.96693333 14.95040001 21.84533333 14.95039999 35.66933334s-4.98346668 25.7024-14.95039999 35.66933333a48.53760001 48.53760001 0 0 1-35.66933334 14.91626666zM118.272 566.54801646c-11.12746668 0-20.65066667-3.95946667-28.60373333-11.8784a39.0144 39.0144 0 0 1-11.8784-28.60373333v-485.88799999c0-11.12746668 3.95946667-20.65066667 11.8784-28.60373335 7.91893333-7.91893333 17.44213333-11.8784 28.60373333-11.8784s20.65066667 3.95946667 28.60373333 11.8784c7.91893333 7.91893333 11.8784 17.44213333 11.8784 28.60373335V526.06588313c0 11.12746668-3.95946667 20.65066667-11.8784 28.60373333a38.98026668 38.98026668 0 0 1-28.60373333 11.8784zM549.51253333 809.47494979c-161.96266667 0-242.92693333-80.9984-242.92693332-242.92693333v-30.37866667H266.06933333c-11.12746668 0-20.65066667-3.95946667-28.60373333-11.8784-7.91893333-7.91893333-11.8784-17.47626667-11.8784-28.60373333s3.95946667-20.65066667 11.8784-28.60373333c7.91893333-7.91893333 17.47626667-11.8784 28.60373333-11.8784h40.48213334v-415.02719999c0-11.12746668 3.95946667-20.65066667 11.91253334-28.60373335 7.91893333-7.91893333 17.44213333-11.8784 28.60373332-11.8784 11.12746668 0 20.65066667 3.95946667 28.60373335 11.8784 7.91893333 7.91893333 11.8784 17.44213333 11.8784 28.60373335V455.20508313h121.99253332c11.12746668 0 20.65066667 3.95946667 28.60373334 11.8784 7.91893333 7.91893333 11.8784 17.47626667 11.87839998 28.60373333s-3.95946667 20.65066667-11.87839998 28.60373333a38.98026668 38.98026668 0 0 1-28.60373334 11.8784h-121.99253334v30.37866667c0 107.96373333 53.99893334 161.96266667 161.96266667 161.96266667 11.12746668 0 20.65066667 3.95946667 28.60373334 11.91253333 7.91893333 7.91893333 11.8784 17.44213333 11.8784 28.60373333s-3.95946667 20.65066667-11.8784 28.60373334a39.18506667 39.18506667 0 0 1-28.60373334 11.84426666zM949.28213333 333.38321645999997a298.63253333 298.63253333 0 0 1-25.63413333 70.62186667c-6.82666667 13.27786667-14.26773334 26.35093333-22.32320001 39.2192s-16.4864 25.53173333-25.36106666 38.02453333c-4.8128 9.25013333-11.26400001 15.49653334-19.31946666 18.70506667-8.05546667 3.20853334-15.90613334 3.92533333-23.552 2.11626666s-14.16533333-6.144-19.62666667-12.97066666c-5.4272-6.82666667-7.95306667-15.49653334-7.54346667-25.94133334 0.4096-6.82666667 2.32106667-12.76586668 5.7344-17.78346666l10.5472-15.39413334c8.05546667-12.08320001 16.00853333-24.33706667 23.82506666-36.82986666 7.85066668-12.45866667 14.37013333-25.73653334 19.62666668-39.8336 7.64586667-20.51413333 13.07306667-43.14453333 16.28159999-67.8912 3.20853334-24.74666667 4.23253333-49.8688 3.00373333-75.43466667-1.19466667-25.56586667-4.8128-50.3808-10.85439999-74.51306667s-14.88213333-45.67040001-26.55573334-64.58026666c-2.83306667-4.43733334-5.4272-8.22613333-7.85066666-11.4688a79.872 79.872 0 0 0-7.54346667-8.73813334l-16.5888-16.5888-8.43093334-9.04533333a60.41600001 60.41600001 0 0 1-6.04159999-19.62666667c-0.8192-6.62186668-0.1024-12.76586668 2.11626667-18.39786666 2.21866667-5.632 6.0416-10.27413333 11.4688-13.89226667s12.35626668-5.4272 20.82133333-5.4272c9.25013333 0 17.7152 2.83306667 25.36106667 8.46506667 7.64586667 5.632 14.47253333 11.67360001 20.51413333 18.1248 14.06293333 14.88213333 25.63413333 32.08533333 34.71359999 51.57546666 9.04533333 19.52426667 16.7936 38.912 23.24480001 58.23146667 7.23626667 22.528 12.66346667 46.76266668 16.2816 72.704 3.61813334 25.94133333 4.9152 52.18986667 3.92533333 78.7456a414.5152 414.5152 0 0 1-10.24 77.824zM736.93866668 39.153883130000054a24.576 24.576 0 0 1-1.60426668 1.84320001l-6.3488 7.23626665a545.38240001 545.38240001 0 0 0-8.73813333 10.27413334 72.22613333 72.22613333 0 0 0-7.85066667 11.1616 239.44533333 239.44533333 0 0 0-26.55573333 63.65866666 347.57973333 347.57973333 0 0 0-10.8544 70.89493334c-1.19466667 24.13226667-0.4096 48.19626667 2.42346665 72.12373333a420.72746668 420.72746668 0 0 0 16.28160001 77.24373333c1.19466667 3.41333333 2.90133333 7.33866667 5.12 11.776a1025.77493333 1025.77493333 0 0 0 21.4016 39.79946667c3.61813334 5.632 8.36266667 12.45866667 14.16533334 20.51413333 5.8368 8.05546667 10.6496 16.384 14.47253333 25.05386668 3.82293333 8.63573333 5.3248 17.1008 4.53973333 25.36106666-0.78506667 8.22613333-6.0416 15.39413333-15.70133333 21.4016-10.06933333 6.0416-19.42186667 7.44106668-28.05760001 4.23253333s-16.58880001-8.63573333-23.82506666-16.2816a130.59413334 130.59413334 0 0 1-19.01226666-25.94133333l-13.58506667-24.13226667c-6.0416-11.26400001-12.08320001-22.4256-18.09066667-33.4848a175.4112 175.4112 0 0 1-14.47253333-35.29386667c-14.88213333-48.67413334-21.53813333-98.67946667-19.89973333-149.94773333s12.66346667-100.6592 33.1776-148.13866667c3.20853334-8.05546667 8.05546667-18.50026668 14.47253333-31.36853333s14.09706667-25.15626667 22.9376-36.79573333 18.80746667-20.92373333 29.86666667-27.75039999c11.0592-6.82666667 22.6304-8.05546667 34.7136-3.61813335 12.86826667 5.2224 20.10453333 13.38026667 21.7088 24.43946667a53.48693333 53.48693333 0 0 1-6.0416 32.90453333l-14.64320001 12.83413334z"  horiz-adv-x="1024" />

    
    <glyph glyph-name="11" unicode="&#60509;" d="M264.77226667 475.88693333h371.84853333a31.50506667 31.50506667 0 1 1 0 63.01013334H264.77226667c-55.94453333 0-99.36213333 36.59093333-99.36213334 78.77973333s43.4176 78.77973333 99.36213334 78.77973333h149.46986666C426.76906667 654.06293333 465.54453333 622.93333333 512 622.93333333s85.23093333 31.1296 97.75786667 73.5232h189.952a31.50506667 31.50506667 0 1 1 0 63.01013334h-191.55626667C594.0224 799.16373333 556.50986667 827.73333333 512 827.73333333s-82.0224-28.5696-96.11946667-68.26666666H264.77226667C176.19626667 759.46666667 102.4 697.30986667 102.4 617.6768s73.79626667-141.78986667 162.37226667-141.78986667zM921.53173333 487.25333333A102.4 102.4 0 1 1 819.2 384c32.69973333 0 61.47413333 15.59893333 80.21333333 39.45813333 11.264-12.86826667 17.95413333-28.33066667 17.95413334-44.71466666 0-42.1888-43.4176-78.77973333-99.36213334-78.77973334H292.28373333A101.95626667 101.95626667 0 0 1 204.8 349.86666667a102.05866667 102.05866667 0 0 1-101.5808-94.24213334C61.7472 230.16106666999997 34.13333333 188.34773332999998 34.13333333 139.81013332999999c0-79.63306667 73.79626667-141.78986667 162.37226667-141.78986666h257.8432A102.1952 102.1952 0 0 1 546.13333333-59.73333333000005a102.4 102.4 0 1 1 0 204.8 102.2976 102.2976 0 0 1-100.5568-84.00213334H196.5056c-55.94453333 0-99.36213333 36.59093333-99.36213333 78.77973334 0 18.67093333 8.87466667 36.0448 23.21066666 49.83466666A102.1952 102.1952 0 0 1 204.8 145.06666667000002a102.05866667 102.05866667 0 0 1 101.34186667 91.88693333h511.82933333c88.61013333 0 162.37226667 62.1568 162.37226667 141.78986667 0.03413333 44.30506667-23.27893333 82.7392-58.81173334 108.50986666z"  horiz-adv-x="1024" />

    
    <glyph glyph-name="10" unicode="&#60522;" d="M955.73333333 378.32248889000005h-136.53333333v189.16693333l91.81866667 87.6544a34.13333333 34.13333333 0 1 1-47.13813334 49.39093333L766.53226667 611.55555555H257.46773333L160.08533333 704.50062222a34.0992 34.0992 0 1 1-47.104-49.3568L204.8 567.45528889v-189.16693334H68.26666667a34.13333333 34.13333333 0 0 1 0-68.26666666h136.53333333V270.22222222000005c0-56.49066667 15.2576-109.43146667 41.84746667-154.89706667L112.98133333-12.299377779999986a34.13333333 34.13333333 0 1 1 47.13813334-49.39093333l127.6928 121.89013333a306.24426667 306.24426667 0 0 1 190.08853333-95.30026667V372.62222222a34.13333333 34.13333333 0 0 0 68.26666667 0v-407.72266667a306.5856 306.5856 0 0 1 190.08853333 95.30026667l127.6928-121.89013333a34.16746667 34.16746667 0 0 1 47.13813333 49.39093333l-133.70026666 127.62453333A306.176 306.176 0 0 1 819.2 270.22222222000005v39.8336h136.53333333a34.13333333 34.13333333 0 0 1 0 68.26666667zM682.66666667 696.88888889a170.66666667 170.66666667 0 0 1-341.33333334 0v-22.76693334h341.33333334V696.88888889z"  horiz-adv-x="1024" />

    
    <glyph glyph-name="2" unicode="&#58908;" d="M512 896C229.376 896 0 666.965 0 384s229.376-512 512-512c282.965 0 512 229.376 512 512C1024 666.965 794.965 896 512 896z m-67.584-766.635c-51.541-51.541-135.51-51.541-187.05 0s-51.542 135.51 0 187.051l132.437 132.437c51.541 51.542 135.509 51.542 187.05 0l4.096-4.096c0.683-0.682 1.366-1.365 2.39-2.048 2.048-2.048 3.754-4.437 5.12-6.826 0-0.342 0.341-0.342 0.341-0.683 6.485-11.947 4.437-27.307-5.461-37.205-10.24-10.24-25.6-11.947-37.547-5.462-1.024-1.024-9.216 7.51-13.653 11.606-26.966 26.965-70.315 27.306-97.28 0.341L302.42 272.043c-26.965-26.966-26.965-70.656 0-97.28 26.966-26.966 70.656-26.966 97.28 0l79.872 79.872c27.648-13.654 60.416-13.995 88.406-1.024L444.416 129.365z m322.219 322.219L634.197 319.14700000000005c-51.541-51.542-135.509-51.542-187.05 0l-4.096 4.096c-0.683 0.682-1.366 1.365-2.39 2.048-2.048 2.048-3.754 4.437-5.12 6.826 0 0.342-0.341 0.342-0.341 0.683-6.485 11.947-4.437 27.307 5.461 37.205 10.24 10.24 25.6 11.947 37.547 5.462 1.024 1.024 9.216-7.51 13.653-11.606 26.966-26.965 70.315-27.306 97.28-0.341L721.92 496.299c26.965 26.965 26.965 70.656 0 97.28-26.965 26.965-70.656 26.965-97.28 0l-79.872-79.872c-27.648 13.653-60.416 13.994-88.405 1.024l123.562 123.562c51.542 51.542 135.51 51.542 187.051 0 51.2-51.2 51.2-135.168-0.341-186.709z m0 0z"  horiz-adv-x="1024" />

    
    <glyph glyph-name="1" unicode="&#58884;" d="M496.46554075 880.06706569c-123.24004347-7.24941431-224.73184395-107.70558419-233.0168889-230.94562766-9.32067555-144.98828642 104.59869235-266.15706864 247.51571754-266.15706864 137.7388721 0 248.55134815 111.84810667 248.55134814 248.55134814 1.03563061 142.91702518-119.09752098 256.83639309-263.05017678 248.55134816z m15.53445925-577.88188445c-165.70089876 0-496.06706569-82.85044939-496.06706569-248.55134815v-124.27567407c0-22.78387358 18.64135111-41.42522469 41.42522471-41.42522471h909.28368196c22.78387358 0 41.42522469 18.64135111 41.42522471 41.42522471v125.31130468c0 164.66526815-330.36616691 247.51571753-496.06706569 247.51571754z"  horiz-adv-x="1024" />

    
    <glyph glyph-name="59" unicode="&#60523;" d="M219.07705805 545.54025277l-58.58044587-58.58174042 351.50338782-351.50856595 351.50338782 351.50856595-58.58303493 58.5882131-292.91905835-292.93070918z"  horiz-adv-x="1024" />

    


  </font>
</defs>
</svg>
